<?xml version="1.0" encoding="utf-8"?>
<!-- Generator: Adobe Illustrator 24.1.2, SVG Export Plug-In . SVG Version: 6.00 Build 0)  -->
<svg version="1.1" id="Camada_1" xmlns="http://www.w3.org/2000/svg" xmlns:xlink="http://www.w3.org/1999/xlink" x="0px" y="0px"
	 viewBox="0 0 1080 1080" style="enable-background:new 0 0 1080 1080;" xml:space="preserve">
<style type="text/css">
	.st0{fill:url(#SVGID_1_);stroke:#000000;stroke-width:16;stroke-miterlimit:10;}
	.st1{fill:#E3C1AF;stroke:#000000;stroke-width:8;stroke-miterlimit:10;}
	.st2{fill:#DAAD94;stroke:#000000;stroke-width:8;stroke-miterlimit:10;}
	.st3{fill:#E3C1AF;stroke:#000000;stroke-width:8;stroke-linecap:round;stroke-linejoin:round;stroke-miterlimit:10;}
	.st4{fill:none;stroke:#000000;stroke-width:8;stroke-miterlimit:10;}
	.st5{fill:#D3A794;}
	.st6{fill:#FFFFFF;}
	.st7{fill:#E2E2E2;stroke:#000000;stroke-width:5;stroke-linecap:round;stroke-linejoin:round;stroke-miterlimit:10;}
	.st8{fill:#E2E2E2;stroke:#000000;stroke-width:5;stroke-miterlimit:10;}
	.st9{fill:#EAB27F;stroke:#000000;stroke-width:5;stroke-miterlimit:10;}
	.st10{fill:#EAB27F;stroke:#000000;stroke-width:3;stroke-linecap:round;stroke-miterlimit:10;}
	.st11{fill:#ADADAD;}
	.st12{fill:#939393;}
	.st13{fill:#2C682F;stroke:#000000;stroke-width:3;stroke-linecap:round;stroke-linejoin:round;stroke-miterlimit:10;}
	.st14{fill:#C68BA0;stroke:#000000;stroke-width:2;stroke-linecap:round;stroke-linejoin:round;stroke-miterlimit:10;}
	.st15{fill:none;stroke:#000000;stroke-width:2;stroke-linecap:round;stroke-linejoin:round;stroke-miterlimit:10;}
	.st16{fill:#B27D95;}
	.st17{fill:#DB9B67;}
	.st18{stroke:#000000;stroke-width:2;stroke-miterlimit:10;}
	.st19{fill:none;stroke:#000000;stroke-width:2;stroke-miterlimit:10;}
	.st20{fill:#DBDBDB;stroke:#000000;stroke-width:3;stroke-miterlimit:10;}
	.st21{fill:none;stroke:#000000;stroke-width:16;stroke-miterlimit:10;}
</style>
<g>
	<radialGradient id="SVGID_1_" cx="540" cy="540" r="340.5063" gradientUnits="userSpaceOnUse">
		<stop  offset="0.5059" style="stop-color:#6F92B5"/>
		<stop  offset="1" style="stop-color:#5272A0"/>
	</radialGradient>
	<circle class="st0" cx="540" cy="540" r="340.51"/>
	<g>
		<g>
			<path class="st1" d="M358.62,259.04c0,0-172.34,198.89-3.83,373.53c0,0,22.47,14.3,40.85,23.49c0,0,48.77,4.34,87.06,33.45
				c0,0,40.41,22.41,93.26-0.57c0,0,88.27-20.11,79.08,37.34c0,0,43.35-7.26,93.69-36.56c8.64-5.03,15.71-12.37,20.45-21.18
				c11.75-21.87,37.81-66.9,55.14-70.94c0,0,11.23-71.09,55.4-34.4c0,0,0.55,282.28-334.96,317.27c0,0-271.13,8.94-334.72-256.07
				C210.04,624.4,137.69,422.42,358.62,259.04z"/>
			<path class="st2" d="M825.09,597.6c0,0,61.28-13.02,16.85,77.36c0,0-90.38,153.96-248.94,166.21c0,0-115.46,57.56-281.77-48.96
				c0,0,90.56,119.17,318.29,76.41c3.55-0.98,156.59-44,221.27-189.3C850.79,679.32,881.77,583.81,825.09,597.6z"/>
			<path class="st3" d="M435.21,753.85c0,0,26.04-25.28,93.45-3.83c0,0,111.06,20.68,126.38-23.74"/>
			<path class="st3" d="M638.96,695.64"/>
			<path class="st3" d="M650.39,734.8c0,0-39.77,16.75-44.37-8.53"/>
			<path class="st3" d="M606.02,726.28c-8.43-22.98,36.77-30.64,36.77-30.64"/>
		</g>
		<path class="st1" d="M851.81,609.09c0,0-24.17,32-4.09,46.98"/>
		<path class="st4" d="M870.87,559.38c0,0-10.77,41.27,4.32,40.89"/>
		<path class="st5" d="M397.94,660.28l3.56,0.62c0,0,1.46,40.11-14.62,36.7c0,0-6.72,19.11-22.55,12.85c0,0-12.48,9.72-22.81-5.98
			c0,0-10.34-0.34-14.47-12.72c0,0-2.26-8.87-1.74-13.85c0,0,1.79,16.66,13.72,18.89c0,0,7.09,13.72,19.02,7.21
			c0,0,17.43,11.81,25.21-10.66C383.26,693.34,401.77,696.02,397.94,660.28z"/>
		<g>
			<path class="st5" d="M215.89,463.68c0,0,13.91,206.47,126.51,294.34c0,0,109.46,93.24,230.14,56.47
				c0,0,141.47-10.52,266.31-143.8c0,0-75.09,150.27-247.84,170.6c0,0-123,49.79-258.57-38.3
				C332.45,803,163.81,681.21,215.89,463.68z"/>
			<path class="st5" d="M431.38,751.55c0,0-0.77-19.91,43.66-25.28c0,0,42.89,3.94,58.98,10.78c0,0,76.05,11.87,75.06,3.5
				c0,0,11.35,5.72,19.12,3.68c0,0-13.67,7.15-37.5,7.32c0,0-57.14-2.21-60.91-5.96c0,0-43.26-10.61-52.79-8.54
				C477,737.06,445.68,737.09,431.38,751.55z"/>
			<path class="st5" d="M616.91,734.53c0,0,32.17-6.47,34.38-12.09c0,0,0,6.3-3.06,8.85C648.23,731.3,628.15,740.15,616.91,734.53z"
				/>
			<path class="st5" d="M845.78,647.38c0,0,3.82-3.74,6.03-8.51c0,0-3.14,11.4-3.02,12.09
				C848.91,651.64,847.23,650.96,845.78,647.38z"/>
			<path class="st5" d="M860.66,610.45c0,0,5.45-4.05,6.49-10.17c0,0-3.25,20.04-4.44,20.38C861.51,621,862.7,619.13,860.66,610.45z
				"/>
		</g>
	</g>
	<g>
		<path class="st6" d="M746.62,397.68c0,0,27.83-0.34,28.26-26.04c0,0-0.43,25.7,27.4,26.04c0,0-27.83,0.34-27.83,25.36
			C774.45,423.04,774.45,397.34,746.62,397.68z"/>
		<path class="st6" d="M657.09,333.14c0,0,52.09-0.64,52.88-48.74c0,0-0.8,48.1,51.29,48.74c0,0-52.09,0.64-52.09,47.47
			C709.17,380.61,709.17,332.51,657.09,333.14z"/>
		<path class="st6" d="M603.98,267.98c0,0,24.47-0.3,24.84-22.9c0,0-0.37,22.6,24.09,22.9c0,0-24.47,0.3-24.47,22.3
			C628.44,290.28,628.44,267.68,603.98,267.98z"/>
		<path class="st6" d="M554.96,250.84c0,0,18.48-0.23,18.76-17.29c0,0-0.28,17.06,18.19,17.29c0,0-18.48,0.23-18.48,16.84
			C573.43,267.68,573.43,250.62,554.96,250.84z"/>
	</g>
	<g>
		<path class="st7" d="M552.91,693.34c0,0-17.87-28.6,20.43-76.6c0,0,17.43-25.49,23.55-36.57c0,0,6.88,14.26,22.4,32.49
			c0,0,16.34,57.19,64.34,35.74c0,0,52.09-2.3,59.74-9.53c0,0,9.97,38.68,7.66,44.77c0,0-37.28,34.21-93.96,38.81
			c0,0,8.73-54.34-75.55-34.58C581.54,687.87,554.23,696.08,552.91,693.34z"/>
		<path class="st8" d="M596.83,579.83c0,0-33.73-66.23,27.05-93.3c0,0,8.86-77.62,27.42-78.64c0,0,30.3,7.15,36.94,64.34
			c0,0,60.09,16.6,68.43,37.53c0,0,62.81-21.19,69.45-9.45c0,0,3.57,36.68-41.36,72.47c0,0-1.62,58.77-40.6,65.92
			c0,0-34.98,14.02-60.51,9.7c0,0-43.91,22.64-64.34-35.74C619.3,612.66,596.15,583.94,596.83,579.83z"/>
	</g>
	<g>
		<g>
			<path class="st9" d="M518.87,552.91c0,0,46.3,40.51,46.3,70.47c0,0-26.21,39.66-12.26,72.26c0,0-43.85,9.8-70.21-6.13
				c0,0-38.72-28.68-87.06-33.45c0,0-53.75-28.65-61.43-47c0,0,20.23-30.95,51.55-52.4c0,0,12.94,42.21,66.04,36.09
				C451.81,592.74,504.57,596.83,518.87,552.91z"/>
			<path class="st9" d="M386.79,554.96c0,0-4.43-4.09-2.72-35.06c0,0-6.81,28.94-13.96,26.89s-40.17-39.49-29.96-59.91
				s56.51-60.68,56.17-37.49c0,0,41.87-41.15,96.68-6.77c0,0,50.38,7.83,63.32,42.55c0,0-8.04,44.99-23.15,57.53
				c-15.11,12.54-8.85-23.83-17.7-31.15c0,0,4.77,28.43,3.4,41.36c0,0-11.91,43.68-65.02,37.84
				C453.85,590.76,399.72,601.94,386.79,554.96z"/>
		</g>
		<path class="st9" d="M354.04,631.79c0,0-30.14,29.38-26.31,42.91c0,0,0.19,17.87,12.99,19.91c0,0,6.42,13.79,17.39,6.38
			c0,0,17.36,12.77,23.23-10.72c0,0,18.38,7.15,13.79-32.94C395.13,657.34,388.27,605.48,354.04,631.79z"/>
	</g>
	<g>
		<path class="st10" d="M381.06,689.51c0,0,1.07-13.53,0-14.55"/>
		<path class="st10" d="M341.71,694.62c0,0-2.27-6.89,1.31-14.04"/>
		<path class="st10" d="M358.11,701c0,0-2.04-12,1.79-15.32"/>
	</g>
	<g>
		<g>
			<g>
				<g>
					<g>
						<path class="st11" d="M634.6,508.75c5.41,2.66,10.88,5.22,16.17,8.11c4.98,2.72,9.78,5.86,13.67,10.03
							c3.69,3.95,6.36,8.75,7.2,14.13c0.92,5.96-0.3,12.08-2.26,17.7c-2.25,6.44-5.52,12.44-8.34,18.63
							c-0.79,1.74,1.79,3.27,2.59,1.51c5.15-11.34,12.11-22.86,11.23-35.8c-0.83-12.18-9.48-21.05-19.46-27.03
							c-6.19-3.71-12.82-6.7-19.29-9.88C634.39,505.31,632.87,507.89,634.6,508.75L634.6,508.75z"/>
					</g>
				</g>
				<g>
					<g>
						<path class="st11" d="M762.61,577.37c-9.76-8.27-19.89-18.51-33.17-20.27c-5.99-0.79-11.94,0.52-16.92,3.97
							c-4.73,3.28-8.38,7.87-11.37,12.74c-3.83,6.22-6.82,12.94-11.2,18.82c-1.15,1.55,1.45,3.05,2.59,1.51
							c6.91-9.29,10.44-21.08,19.37-28.83c4.26-3.69,9.49-5.71,15.16-5.44c6.11,0.29,11.8,2.9,16.82,6.23
							c5.91,3.92,11.19,8.8,16.6,13.38C761.95,580.73,764.09,578.62,762.61,577.37L762.61,577.37z"/>
					</g>
				</g>
			</g>
			<g>
				<g>
					<path class="st11" d="M678.16,516.15c2.88,2.39,4.63,5.48,5.22,9.2c0.13,0.8,1.13,1.24,1.85,1.05
						c0.85-0.23,1.17-1.04,1.05-1.85c-0.64-4.06-2.83-7.9-5.99-10.52c-0.62-0.52-1.51-0.61-2.12,0
						C677.63,514.57,677.53,515.63,678.16,516.15L678.16,516.15z"/>
				</g>
			</g>
			<g>
				<g>
					<path class="st11" d="M716.73,543.04c2.97-1.07,6.16-0.87,8.88,0.63c0.71,0.39,1.64,0.17,2.05-0.54
						c0.4-0.69,0.17-1.66-0.54-2.05c-3.39-1.86-7.54-2.25-11.2-0.93c-0.76,0.27-1.27,1.02-1.05,1.85
						C715.09,542.73,715.97,543.32,716.73,543.04L716.73,543.04z"/>
				</g>
			</g>
			<g>
				<g>
					<path class="st11" d="M610.75,542.32c-2.25,5.59-1.78,12.06,1.08,17.34c0.92,1.7,3.51,0.19,2.59-1.51
						c-2.51-4.63-2.73-10.16-0.77-15.02c0.3-0.75-0.33-1.65-1.05-1.85C611.74,541.04,611.05,541.57,610.75,542.32L610.75,542.32z"/>
				</g>
			</g>
			<g>
				<g>
					<path class="st11" d="M728.04,621.73c5.88-0.08,11.99-0.4,16.73-4.3c0.63-0.52,0.53-1.59,0-2.12c-0.62-0.62-1.49-0.52-2.12,0
						c-4.03,3.32-9.66,3.35-14.61,3.42C726.11,618.76,726.1,621.76,728.04,621.73L728.04,621.73z"/>
				</g>
			</g>
			<g>
				<g>
					<path class="st12" d="M705.83,603.85c22.55,2.03,44.97,5.35,67.13,9.97c6.18,1.29,12.34,2.68,18.48,4.17
						c0.47,0.11,0.67-0.61,0.2-0.72c-21.91-5.3-44.12-9.35-66.49-12.11c-6.43-0.79-12.87-1.47-19.32-2.05
						C705.35,603.05,705.35,603.8,705.83,603.85L705.83,603.85z"/>
				</g>
			</g>
			<g>
				<g>
					<path class="st12" d="M706.25,610.89c10.21-2.4,19.75,3.14,27.79,8.8c7.87,5.54,15.29,11.73,22.17,18.46
						c3.83,3.74,7.48,7.65,10.96,11.72c0.31,0.37,0.84-0.17,0.53-0.53c-6.48-7.56-13.57-14.59-21.2-20.99
						c-3.73-3.12-7.58-6.1-11.54-8.91c-4.02-2.86-8.17-5.61-12.75-7.5c-5.11-2.11-10.73-3.04-16.16-1.76
						C705.58,610.28,705.78,611,706.25,610.89L706.25,610.89z"/>
				</g>
			</g>
			<g>
				<g>
					<path class="st12" d="M692.57,606.3c5.93-1.33,11.94,0.03,17.67,1.68c5.49,1.58,10.92,3.34,16.31,5.24
						c10.73,3.79,21.25,8.19,31.49,13.17c5.83,2.83,11.56,5.86,17.2,9.06c0.42,0.24,0.8-0.41,0.38-0.65
						c-20.29-11.52-41.89-20.72-64.28-27.29c-6.14-1.8-12.57-3.37-18.96-1.94C691.9,605.69,692.1,606.41,692.57,606.3L692.57,606.3z
						"/>
				</g>
			</g>
			<g>
				<g>
					<path class="st12" d="M641.09,586.71c-15.4-12.68-34.55-20.52-54.39-22.45c-5.7-0.55-11.45-0.6-17.16-0.16
						c-0.48,0.04-0.48,0.79,0,0.75c19.79-1.54,39.89,3.03,57.14,12.83c4.89,2.78,9.54,5.98,13.88,9.56
						C640.93,587.55,641.46,587.02,641.09,586.71L641.09,586.71z"/>
				</g>
			</g>
			<g>
				<g>
					<path class="st12" d="M646.26,584.51c0.24-4.93-4.04-8.38-7.81-10.78c-5.13-3.26-10.52-6.12-16.06-8.62
						c-10.87-4.91-22.38-8.39-34.16-10.3c-6.7-1.09-13.48-1.66-20.27-1.73c-0.48,0-0.48,0.75,0,0.75
						c23.15,0.23,46.17,6.53,66.18,18.18c4.57,2.66,11.66,6.29,11.36,12.51C645.48,584.99,646.23,584.99,646.26,584.51
						L646.26,584.51z"/>
				</g>
			</g>
			<g>
				<g>
					<path class="st12" d="M638.85,579.81c-13.02-15.52-30.59-27.06-49.96-33c-5.49-1.68-11.11-2.9-16.8-3.65
						c-0.48-0.06-0.47,0.69,0,0.75c20.05,2.67,39.19,11.35,54.5,24.54c4.22,3.64,8.14,7.62,11.72,11.89
						C638.63,580.71,639.16,580.18,638.85,579.81L638.85,579.81z"/>
				</g>
			</g>
			<g>
				<g>
					<path class="st12" d="M648.23,585.97c0.48,0,0.48-0.75,0-0.75C647.75,585.22,647.75,585.97,648.23,585.97L648.23,585.97z"/>
				</g>
			</g>
			<g>
				<g>
					<path class="st12" d="M632.06,587.67c0.48,0,0.48-0.75,0-0.75C631.58,586.92,631.58,587.67,632.06,587.67L632.06,587.67z"/>
				</g>
			</g>
			<g>
				<g>
					<path class="st12" d="M638.02,582.4c0.48,0,0.48-0.75,0-0.75C637.54,581.65,637.54,582.4,638.02,582.4L638.02,582.4z"/>
				</g>
			</g>
			<g>
				<g>
					<path class="st12" d="M630.36,574.06c0.48,0,0.48-0.75,0-0.75C629.88,573.31,629.88,574.06,630.36,574.06L630.36,574.06z"/>
				</g>
			</g>
			<g>
				<g>
					<path class="st12" d="M710.19,614.91c0.48,0,0.48-0.75,0-0.75C709.71,614.16,709.71,614.91,710.19,614.91L710.19,614.91z"/>
				</g>
			</g>
			<g>
				<g>
					<path class="st12" d="M698.28,608.27c0.48,0,0.48-0.75,0-0.75C697.79,607.52,697.79,608.27,698.28,608.27L698.28,608.27z"/>
				</g>
			</g>
			<g>
				<g>
					<path class="st12" d="M700.66,602.82c0.48,0,0.48-0.75,0-0.75C700.18,602.07,700.18,602.82,700.66,602.82L700.66,602.82z"/>
				</g>
			</g>
			<g>
				<g>
					<path class="st12" d="M715.81,603.33c0.48,0,0.48-0.75,0-0.75C715.33,602.58,715.33,603.33,715.81,603.33L715.81,603.33z"/>
				</g>
			</g>
		</g>
		<g>
			<g>
				<path class="st13" d="M638.96,511.55c0,0,45.19,15.32,27.57,51.06C666.53,562.62,625.94,545.26,638.96,511.55z"/>
				<path class="st13" d="M701,580.17c0,0,15.83-40.28,56.17-3.26C757.17,576.91,734.96,605.13,701,580.17z"/>
			</g>
			<g>
				<circle cx="656.83" cy="540" r="13.21"/>
				<circle cx="724.11" cy="575.87" r="13.21"/>
			</g>
		</g>
		<g>
			<g>
				<path class="st14" d="M663.72,579.83c0,0,15.57,0.66,25.53,13.68c0,0-16.34,2.55-20.17,8.17
					C669.09,601.68,668.32,591.17,663.72,579.83z"/>
				<path class="st15" d="M636.38,607.55c0,0,28.33,5.36,32.56-7.28c0,0-2.67,22.08,15.97,29.74"/>
			</g>
			<g>
				<path class="st14" d="M632.57,483.72c0,0,33.45-20.43,48.51-6.89c0,0-13.31-59.23-27.59-61.79
					C653.5,415.04,633.6,432.66,632.57,483.72z"/>
				<path class="st14" d="M760.74,515.89c0,0,52.09-19.34,58.47-12.77c0,0,1.28,35.74-36,62.3
					C783.21,565.43,788.32,546.02,760.74,515.89z"/>
			</g>
		</g>
		<g>
			<path class="st11" d="M601.17,593.39c0,0,9.34,23.16,11.95,24.92c0,0,32.73,67.89,78.12,45.42c0,0,24.57-2.72,50.1-20.94
				c0,0-23.83,9.94-57.19,7.83c0,0-46.13,22.3-67.23-37.28C616.91,613.34,602.96,596.33,601.17,593.39z"/>
			<path class="st11" d="M659.8,714.67c0,0,49.63-5.43,88.89-32.31c0,0-34.58,32.68-89.05,37.45
				C659.64,719.81,660.3,719.52,659.8,714.67z"/>
			<path class="st16" d="M762.4,516.34c0,0,7.22,7.14,10.42,12.95c0,0,10.97-23.48,45.31-25.65
				C818.13,503.64,815.51,497.77,762.4,516.34z"/>
			<path class="st16" d="M639.64,443.19c0,0,3.79-15.7,14.04-27.04c0,0,2.13-3.53,11.82,15.24
				C665.5,431.39,652.4,425.66,639.64,443.19z"/>
		</g>
	</g>
	<g>
		<g>
			<g>
				<g>
					<g>
						<g>
							<g>
								<path class="st17" d="M396.35,518c3.44-6.79,8.05-14.45,16.05-16.28c3.69-0.84,7.59-0.07,10.44,2.49
									c3.12,2.81,5.51,6.56,8.07,9.87c0.5,0.65,1.59,0.52,2.12,0c0.64-0.63,0.49-1.48,0-2.12c-2.78-3.6-5.4-7.84-9.02-10.66
									c-3.41-2.66-7.81-3.4-12.01-2.55c-8.99,1.8-14.39,10.16-18.24,17.74C392.88,518.21,395.47,519.73,396.35,518L396.35,518z"/>
							</g>
						</g>
						<g>
							<g>
								<path class="st17" d="M468.34,511.26c3.62-6.48,9.02-15.44,17.78-14.27c4.04,0.54,7.45,3.23,10.29,5.97
									c3.02,2.91,5.79,6.05,9.25,8.46c1.59,1.1,3.09-1.49,1.51-2.59c-5.79-4.03-9.63-10.47-16.2-13.46
									c-3.17-1.44-6.63-1.88-10.01-0.92c-3.22,0.92-6.1,2.88-8.4,5.29c-2.81,2.94-4.85,6.49-6.82,10.01
									C464.8,511.43,467.39,512.95,468.34,511.26L468.34,511.26z"/>
							</g>
						</g>
						<g>
							<g>
								<path class="st17" d="M441.14,537.15c5.68-5.27,14.17-5.91,20.65-1.72c1.63,1.05,3.13-1.54,1.51-2.59
									c-7.62-4.94-17.65-3.97-24.28,2.19C437.6,536.34,439.72,538.46,441.14,537.15L441.14,537.15z"/>
							</g>
						</g>
						<g>
							<path class="st17" d="M382.15,518.87c-0.83-13.2,1.86-25.9,4.69-35.14c-2.74,15.44-1.24,32.24-0.88,35.74L382.15,518.87z"/>
							<path class="st17" d="M385.26,491.48c-1.17,12.17-0.25,23.57,0.14,27.4l-2.77-0.44C382.07,508.77,383.4,499.39,385.26,491.48
								 M392.32,468.15c-0.68,1.29-1.29,2.64-1.84,4.05C391.57,469.61,392.32,468.15,392.32,468.15L392.32,468.15z M390.48,472.2
								c-3.4,8.02-10.18,26.9-8.79,47.1l4.85,0.77C386.53,520.06,383.03,491.22,390.48,472.2L390.48,472.2z"/>
						</g>
						<g>
							<path class="st17" d="M517.6,509.38c-1.34-1.12-4.05-3.38-5.16-4.28c0.03-1.7,0.13-11.86-2.04-26
								C513.23,488.86,517.45,504.19,517.6,509.38z"/>
							<path class="st17" d="M511.83,485.93c2.38,8.57,4.71,17.81,5.19,22.3c-1.33-1.11-3.1-2.59-4.07-3.38
								C512.97,502.97,512.98,495.93,511.83,485.93 M508.36,470.45c4.09,20.17,3.57,34.88,3.57,34.88c1.28,1.02,6.13,5.09,6.13,5.09
								C518.83,504.55,508.36,470.45,508.36,470.45L508.36,470.45z"/>
						</g>
						<g>
							<g>
								<path class="st17" d="M352.65,517.89c2.38,3.63,4.76,7.26,7.14,10.9c1.15,1.75,2.3,3.51,3.45,5.26
									c0.94,1.44,1.85,3.14,3.46,3.91c1.62,0.77,3.52,0.44,4.55-1.08c1.03-1.51,1.53-3.54,2.2-5.24
									c1.58-4.01,3.17-8.02,4.75-12.04c0.71-1.8-2.19-2.58-2.89-0.8c-1.31,3.32-2.62,6.64-3.93,9.96
									c-0.66,1.66-1.31,3.32-1.97,4.98c-0.14,0.35-0.42,1.52-0.88,1.64c-0.6,0.15-1.22-0.66-1.5-1.04
									c-2.08-2.78-3.85-5.85-5.75-8.75c-2.01-3.07-4.02-6.14-6.03-9.21C354.19,514.77,351.59,516.27,352.65,517.89L352.65,517.89z
									"/>
							</g>
						</g>
						<g>
							<g>
								<path class="st17" d="M357.28,523.92c2.69,2.86,5.92,5.95,10.15,5.82c4.33-0.14,6.91-3.75,8.91-7.14
									c0.98-1.67-1.61-3.18-2.59-1.51c-1.46,2.46-3.32,5.69-6.59,5.66c-3.26-0.03-5.7-2.75-7.76-4.94
									C358.07,520.39,355.95,522.51,357.28,523.92L357.28,523.92z"/>
							</g>
						</g>
						<g>
							<g>
								<path class="st17" d="M363.18,530.98c0.17,0.04,0.33,0.08,0.49,0.13c0.07,0.02,0.14,0.05,0.21,0.07
									c0.05,0.02,0.28,0.1,0.08,0.03c-0.19-0.08,0.03,0.02,0.08,0.04c0.08,0.04,0.17,0.08,0.25,0.13
									c0.15,0.08,0.29,0.17,0.43,0.26c0.06,0.04,0.12,0.09,0.18,0.13c0.19,0.13-0.26-0.24,0.01,0.01c0.11,0.1,0.22,0.2,0.33,0.31
									c0.11,0.11,0.21,0.22,0.31,0.33c0.2,0.23-0.01-0.03-0.02-0.04c0.05,0.02,0.16,0.23,0.19,0.28c0.08,0.13,0.16,0.25,0.23,0.39
									c0.04,0.07,0.07,0.13,0.1,0.2c0.14,0.27-0.03-0.03-0.01-0.05c-0.04,0.06,0.25,0.61,0.26,0.64c0.07,0.15,0.14,0.28,0.23,0.42
									c0.75,1.08,2.23,1.29,3.2,0.34c0.61-0.6,0.98-1.48,1.4-2.22c0.43-0.75,0.88-1.49,1.29-2.26c0.32-0.59,0.45-1.21,0.18-1.85
									c-0.28-0.66-0.94-1.09-1.66-1.1c-0.84-0.01-1.66,0.44-2.43,0.74c-0.45,0.17-0.89,0.35-1.34,0.52
									c-0.59,0.23-1.14,0.46-1.48,1.02c-0.44,0.71-0.27,1.66,0.29,2.25c0.47,0.49,1.13,0.65,1.78,0.64c0.78,0,1.54-0.69,1.5-1.5
									c-0.04-0.81-0.66-1.5-1.5-1.5c-0.04,0-0.08,0-0.12,0c-0.15-0.01-0.16-0.01-0.03,0c0.2,0,0.35,0.12,0.43,0.37
									c0.28,0.43,0.39,0.52,0.33,0.27c0,0.27,0,0.53,0,0.8c-0.09,0.23-0.24,0.41-0.43,0.56c-0.24,0.09-0.25,0.1-0.05,0.02
									c0.19-0.07,0.38-0.15,0.56-0.22c0.38-0.15,0.75-0.29,1.13-0.44c0.38-0.15,0.75-0.29,1.13-0.44
									c0.16-0.06,0.53-0.09,0.09-0.09c0.72,0,0.41-0.55-0.93-1.66c-0.02,0.03-0.04,0.07-0.05,0.1c-0.47,0.65-0.81,1.43-1.21,2.13
									c-0.2,0.35-0.4,0.71-0.6,1.06c-0.1,0.18-0.2,0.36-0.3,0.53c-0.03,0.06-0.07,0.12-0.11,0.17c0.12-0.15,0.15-0.18,0.08-0.1
									c-0.08,0.08-0.04,0.06,0.12-0.07c0.22-0.11,0.46-0.14,0.71-0.08c0.25,0.06,0.44,0.2,0.56,0.41
									c-0.04-0.05-0.07-0.11-0.1-0.17c-0.07-0.15-0.06-0.12,0.04,0.09c-0.02-0.06-0.05-0.13-0.07-0.19
									c-0.09-0.22-0.18-0.45-0.29-0.67c-0.29-0.6-0.7-1.16-1.16-1.64c-0.93-0.99-2.19-1.71-3.51-1.99
									c-0.77-0.16-1.66,0.23-1.85,1.05C361.96,529.89,362.36,530.8,363.18,530.98L363.18,530.98z"/>
							</g>
						</g>
						<g>
							<g>
								<path class="st17" d="M369.85,534.5c0-0.16,0-0.32,0-0.48c0.01-0.21-0.04-0.4-0.13-0.58c-0.06-0.19-0.16-0.35-0.31-0.48
									c-0.14-0.15-0.3-0.25-0.48-0.31c-0.18-0.09-0.37-0.14-0.58-0.13c-0.13,0.02-0.27,0.04-0.4,0.05
									c-0.25,0.07-0.47,0.2-0.66,0.39c-0.08,0.1-0.16,0.2-0.23,0.3c-0.14,0.23-0.2,0.49-0.2,0.76c0,0.16,0,0.32,0,0.48
									c-0.01,0.21,0.04,0.4,0.13,0.58c0.06,0.19,0.16,0.35,0.31,0.48c0.14,0.15,0.3,0.25,0.48,0.31c0.18,0.09,0.37,0.14,0.58,0.13
									c0.13-0.02,0.27-0.04,0.4-0.05c0.25-0.07,0.47-0.2,0.66-0.39c0.08-0.1,0.16-0.2,0.23-0.3
									C369.78,535.02,369.85,534.77,369.85,534.5L369.85,534.5z"/>
							</g>
						</g>
						<g>
							<g>
								<path class="st17" d="M375.32,518.61c-0.73,0.97-1.29,2.07-1.67,3.23c-0.12,0.37,0.14,0.84,0.52,0.92
									c0.41,0.09,0.79-0.12,0.92-0.52c0.04-0.14,0.09-0.27,0.14-0.41c0.03-0.07,0.05-0.13,0.08-0.2c0.01-0.04,0.1-0.27,0.03-0.07
									c0.1-0.26,0.23-0.51,0.36-0.76c0.26-0.5,0.57-0.98,0.91-1.43c0.11-0.14,0.12-0.41,0.08-0.58c-0.05-0.17-0.18-0.36-0.34-0.45
									c-0.17-0.09-0.38-0.14-0.58-0.08C375.58,518.33,375.45,518.44,375.32,518.61L375.32,518.61z"/>
							</g>
						</g>
						<g>
							<g>
								<path class="st17" d="M359.15,521.55c-0.68-0.8-1.35-1.6-2.03-2.4c-0.12-0.14-0.35-0.22-0.53-0.22
									c-0.18,0-0.4,0.08-0.53,0.22c-0.29,0.32-0.27,0.74,0,1.06c0.68,0.8,1.35,1.6,2.03,2.4c0.12,0.14,0.35,0.22,0.53,0.22
									c0.18,0,0.4-0.08,0.53-0.22C359.44,522.29,359.42,521.87,359.15,521.55L359.15,521.55z"/>
							</g>
						</g>
						<g>
							<g>
								<path class="st17" d="M524.59,526.34c0.31,2.29,0.62,4.57,0.93,6.86c0.15,1.09,0.26,2.18,0.45,3.26
									c0.16,0.92,0.59,1.9,1.4,2.43c2.21,1.44,3.88-1.12,5.03-2.64c1.27-1.68,2.45-3.42,3.54-5.22c1.24-2.05,2.35-4.17,3.33-6.35
									c0.33-0.74,0.21-1.61-0.54-2.05c-0.64-0.38-1.72-0.2-2.05,0.54c-1.91,4.22-4.29,8.25-7.13,11.92
									c-0.16,0.21-0.33,0.42-0.49,0.63c-0.12,0.15-0.42,0.39-0.49,0.57c-0.02,0.04-0.05,0.06-0.08,0.07
									c0.18-0.07,0.35-0.06,0.52,0.04c0.16,0.01,0.06,0.22,0.02-0.04c-0.15-0.97-0.37-2.1-0.51-3.13
									c-0.35-2.55-0.69-5.11-1.04-7.66c-0.11-0.8-1.14-1.24-1.85-1.05C524.77,524.74,524.48,525.54,524.59,526.34L524.59,526.34z"
									/>
							</g>
						</g>
						<g>
							<g>
								<path class="st17" d="M525.09,526.38c0.09,1.7,0.28,3.42,1.45,4.76c1.21,1.38,3.06,1.69,4.68,0.89
									c1.44-0.7,2.56-2.1,3.68-3.21c1.28-1.27,2.56-2.53,3.85-3.8c-0.71-0.71-1.41-1.41-2.12-2.12c-2.75,3.54-5.5,7.08-8.25,10.62
									c0.85,0.35,1.71,0.71,2.56,1.06c-0.07-0.53-0.14-1.05-0.21-1.58c-0.11-0.8-0.61-1.5-1.5-1.5c-0.73,0-1.61,0.69-1.5,1.5
									c0.07,0.53,0.14,1.05,0.21,1.58c0.08,0.61,0.31,1.13,0.92,1.37c0.5,0.2,1.27,0.16,1.64-0.31c2.75-3.54,5.5-7.08,8.25-10.62
									c0.5-0.64,0.62-1.5,0-2.12c-0.58-0.58-1.54-0.57-2.12,0c-1.05,1.03-2.09,2.07-3.14,3.1c-0.97,0.96-1.91,1.97-2.93,2.87
									c-0.31,0.27-0.67,0.53-1.04,0.61c0.17-0.04-0.14,0.01-0.19,0c-0.11,0-0.11,0,0,0c-0.05-0.01-0.1-0.03-0.15-0.04
									c0.17,0.09-0.09-0.05-0.15-0.09c-0.2-0.12,0.15,0.19-0.14-0.11c-0.31-0.31-0.47-0.62-0.6-1.14
									c-0.14-0.57-0.16-1.13-0.19-1.73c-0.04-0.81-0.66-1.5-1.5-1.5C525.81,524.88,525.05,525.57,525.09,526.38L525.09,526.38z"/>
							</g>
						</g>
						<g>
							<g>
								<path class="st17" d="M504.48,510.06c-0.35,0.53-0.71,1.05-1.09,1.55c-0.05,0.07-0.1,0.14-0.16,0.2
									c0.11-0.13,0.14-0.18,0.01-0.02c-0.1,0.12-0.19,0.24-0.29,0.36c-0.21,0.25-0.42,0.5-0.63,0.74
									c-0.85,0.96-1.76,1.86-2.73,2.7c-0.6,0.51-0.57,1.6,0,2.12c0.64,0.58,1.48,0.55,2.12,0c2.07-1.78,3.86-3.86,5.35-6.14
									c0.43-0.66,0.15-1.69-0.54-2.05C505.78,509.13,504.94,509.36,504.48,510.06L504.48,510.06z"/>
							</g>
						</g>
						<g>
							<g>
								<path class="st17" d="M393.59,518.58c1.41,2.21,3.36,4.06,5.67,5.3c0.69,0.37,1.66,0.2,2.05-0.54
									c0.37-0.7,0.2-1.66-0.54-2.05c-0.51-0.28-1.01-0.58-1.49-0.92c-0.11-0.08-0.22-0.16-0.34-0.25
									c-0.21-0.15,0.22,0.17,0.07,0.06c-0.05-0.04-0.11-0.09-0.16-0.13c-0.23-0.18-0.45-0.38-0.66-0.57
									c-0.42-0.39-0.81-0.8-1.18-1.24c-0.09-0.11-0.18-0.21-0.26-0.32c-0.19-0.23,0.16,0.22,0.06,0.07
									c-0.04-0.06-0.08-0.11-0.12-0.17c-0.18-0.25-0.35-0.5-0.52-0.76c-0.42-0.66-1.35-0.99-2.05-0.54
									C393.46,516.95,393.14,517.87,393.59,518.58L393.59,518.58z"/>
							</g>
						</g>
					</g>
					<g>
						<path class="st18" d="M434.19,543.47c0,0,15.06-21.49,33.7-3.47c0,0-8.94,8.57-15.57,11.13
							C452.32,551.13,439.04,547.55,434.19,543.47z"/>
						<path class="st19" d="M413.38,580.17c0,0,40.98,5.17,38.94-29.04c0,0-1.28,35.23,43.15,21.96"/>
					</g>
					<g>
						<g>
							<path class="st20" d="M396.91,518.19c0,0,16.09-33.19,32.94-4.09C429.85,514.11,409.17,537.34,396.91,518.19z"/>
							<path class="st20" d="M503.38,511.55c0,0-21.45-30.38-34.21,0C469.17,511.55,492.15,534.53,503.38,511.55z"/>
						</g>
						<g>
							<ellipse cx="413.38" cy="514.25" rx="11.95" ry="11.51"/>
							<ellipse cx="484.57" cy="509.91" rx="11.95" ry="11.51"/>
						</g>
					</g>
				</g>
			</g>
		</g>
		<g>
			<g>
				<path class="st17" d="M394.34,503.16c3.45-7.27,11.32-11.52,19.3-10.07c1.89,0.34,2.7-2.55,0.8-2.89
					c-9.24-1.68-18.64,2.9-22.69,11.45C390.93,503.38,393.51,504.91,394.34,503.16L394.34,503.16z"/>
			</g>
		</g>
		<g>
			<g>
				<path class="st17" d="M505.17,497.12c-2.77-3.66-5.64-7.46-9.73-9.73c-4.09-2.27-8.95-2.85-13.47-1.72
					c-1.87,0.47-1.08,3.36,0.8,2.89c3.86-0.96,8.02-0.42,11.47,1.59c3.47,2.03,5.97,5.33,8.35,8.48c0.49,0.65,1.29,0.97,2.05,0.54
					C505.27,498.81,505.66,497.77,505.17,497.12L505.17,497.12z"/>
			</g>
		</g>
	</g>
	<g>
		<g>
			<path class="st17" d="M454.99,612.09c-7.03,0-20.89-1.04-34.83-8.01c-15.17-7.59-26.22-19.98-32.91-36.9
				c6.23,10.21,22.09,28.99,54.32,28.99c3.15,0,6.43-0.18,9.74-0.54c0.34,0.03,2.2,0.19,5.17,0.19c13.67,0,45.43-3.2,60.79-31.15
				c-5.4,14.57-21.25,46.08-57.56,47.24C459.65,611.91,457.91,612.09,454.99,612.09z"/>
			<path class="st17" d="M514.71,569.77c-1.85,4.23-4.35,9.14-7.65,14.06c-11.87,17.68-27.81,26.95-47.37,27.58l-0.04,0l-0.04,0
				c-0.02,0-1.74,0.18-4.63,0.18c-6.98,0-20.76-1.03-34.6-7.96c-13.44-6.72-23.62-17.25-30.38-31.39c1.57,2.1,3.45,4.34,5.7,6.59
				c8.13,8.14,22.69,17.84,45.87,17.84c3.15,0,6.43-0.18,9.75-0.53c0.45,0.04,2.3,0.19,5.16,0.19
				C469.41,596.32,498.42,593.47,514.71,569.77 M520.06,557.51c-13.6,34.48-50.03,37.81-63.58,37.81c-3.24,0-5.17-0.19-5.17-0.19
				c-3.4,0.37-6.65,0.54-9.74,0.54c-44.21,0-57.17-35.09-57.17-35.09c14.75,47.84,56.47,52.02,70.58,52.02
				c2.98,0,4.73-0.19,4.73-0.19C507.72,610.87,520.06,557.51,520.06,557.51L520.06,557.51z"/>
		</g>
		<g>
			<path class="st17" d="M523.25,695.54c-16.13,0-29.03-2.82-38.34-8.38c-0.43-0.29-45.89-31.08-87.47-33.96
				c-0.14-1.02-0.52-3.73-0.93-5.62c6.22,0.47,54.27,4.88,93.15,30.85c0.28,0.13,21.05,9.25,42.98,9.25c5.01,0,9.75-0.47,14.12-1.41
				c0.31,1.34,1.22,5.09,2.03,7.03C546.17,693.79,535.7,695.54,523.25,695.54z"/>
			<path class="st17" d="M397.13,648.14c8.36,0.69,54.62,5.58,92.25,30.71l0.07,0.05l0.08,0.03c0.21,0.09,21.08,9.25,43.11,9.25
				c4.86,0,9.48-0.44,13.74-1.32c0.35,1.47,1.04,4.21,1.72,6.06c-3.35,0.59-13.23,2.12-24.84,2.12c-16.03,0-28.83-2.79-38.06-8.29
				c-1.33-0.9-46.12-30.99-87.31-34.01C397.73,651.67,397.45,649.74,397.13,648.14 M395.87,647.04c0.57,2.21,1.13,6.64,1.13,6.64
				c42.04,2.72,87.66,33.91,87.66,33.91c11.16,6.67,25.95,8.45,38.6,8.45c14.56,0,26.26-2.36,26.26-2.36c-1.02-1.89-2.38-8-2.38-8
				c-4.77,1.07-9.66,1.51-14.49,1.51c-22.07,0-42.7-9.17-42.7-9.17C447.89,649.94,395.87,647.04,395.87,647.04L395.87,647.04z"/>
		</g>
		<g>
			<path class="st17" d="M542,686.34c-0.3,0-0.51-0.02-0.64-0.04c-6.34-16.56,16.05-59.4,20.35-67.38l0.55,3.52
				c-20.24,33.22-16.23,59.27-15.51,63.03C544.28,686.19,542.81,686.34,542,686.34L542,686.34z"/>
			<path class="st17" d="M561.45,620.46l0.29,1.86C550.4,641,546.81,657.24,545.8,667.6c-0.89,9.08-0.03,15.25,0.38,17.5
				c-2.15,0.6-3.45,0.74-4.17,0.74c-0.11,0-0.2,0-0.28-0.01C536.08,670.05,555.9,630.91,561.45,620.46 M561.98,617.38
				c0,0-28.47,50.9-20.99,69.33c0,0,0.27,0.13,1.02,0.13c0.92,0,2.57-0.19,5.34-1.03c0,0-6.61-27.19,15.45-63.28L561.98,617.38
				L561.98,617.38z"/>
		</g>
		<g>
			<path class="st17" d="M355.64,626.94c-1.68-1.18-10.44-7.48-15.88-14.6c4.79,4.27,13.67,11.96,17.34,13.61
				C356.6,626.29,356,626.69,355.64,626.94z"/>
			<path class="st17" d="M346.14,618.56c3.7,3.1,7.51,6.08,9.98,7.44c-0.17,0.12-0.34,0.23-0.49,0.33
				C354.2,625.31,350.18,622.37,346.14,618.56 M337.09,609.26c5.36,9.36,18.55,18.3,18.55,18.3c0.34-0.26,2.64-1.79,2.64-1.79
				c-0.02,0-0.04,0-0.07,0C355.11,625.77,337.09,609.26,337.09,609.26L337.09,609.26z"/>
		</g>
		<g>
			<path class="st17" d="M338.87,690.94c-2.23-1.01-8-4.89-8.27-17.89c1.57,4.47,4.8,12.33,8.05,12.33c0.23,0,0.45-0.04,0.67-0.11
				C339.03,686.8,338.65,689.33,338.87,690.94z"/>
			<path class="st17" d="M331.29,676.36c1.82,4.51,4.49,9.51,7.36,9.51c0.02,0,0.03,0,0.05,0c-0.22,1.29-0.43,2.9-0.39,4.25
				C336.11,688.89,332.22,685.45,331.29,676.36 M330.13,670.03c-0.79,19.48,9.5,21.72,9.5,21.72c-0.93-1.47,0.41-7.53,0.41-7.53
				c-0.45,0.46-0.92,0.66-1.39,0.66C334.61,684.87,330.13,670.03,330.13,670.03L330.13,670.03z"/>
		</g>
		<g>
			<path class="st17" d="M351.81,700.17c-3.07,0-5.86-2.24-8.31-6.66c-0.1-0.61-0.66-4.44-0.32-7.05
				c1.53,3.17,5.69,10.75,10.56,10.75c0,0,0,0,0,0c0.62,0,1.23-0.12,1.83-0.37c0.05,0.62,0.12,1.46,0.23,2
				C355.24,699.25,353.74,700.17,351.81,700.17C351.81,700.17,351.81,700.17,351.81,700.17z"/>
			<path class="st17" d="M343.57,688.37c1.98,3.71,5.72,9.34,10.17,9.34c0.47,0,0.93-0.06,1.38-0.19c0.03,0.37,0.08,0.75,0.13,1.09
				c-0.64,0.41-1.89,1.06-3.44,1.06c-2.81,0-5.52-2.19-7.83-6.33C343.81,692.28,343.57,690.24,343.57,688.37 M343.02,684.91
				c-1.01,2.68,0,8.77,0,8.77c3.06,5.56,6.28,6.99,8.79,6.99c2.68,0,4.55-1.63,4.55-1.63c-0.21-0.6-0.34-2.98-0.34-2.98
				c-0.77,0.45-1.53,0.65-2.28,0.65C347.97,696.71,343.02,684.91,343.02,684.91L343.02,684.91z"/>
		</g>
		<g>
			<path class="st17" d="M368.12,701.53c-3.91,0-7.53-2.43-8.34-3c-0.06-0.7-0.11-2.98-0.14-5.02c1.57,2.14,3.45,3.22,5.61,3.22
				c5.61,0,11.51-7.38,13.98-10.87C377.73,696.12,373.91,701.53,368.12,701.53z"/>
			<path class="st17" d="M378.4,687.83c-1.28,6.72-4.12,13.2-10.27,13.2c-3.51,0-6.81-2.06-7.85-2.78c-0.04-0.62-0.07-1.88-0.1-3.34
				c1.47,1.54,3.17,2.31,5.08,2.31C370.28,697.22,375.45,691.64,378.4,687.83 M380,683.83c0,0-7.75,12.39-14.74,12.39
				c-2.21,0-4.34-1.23-6.13-4.48c0,0,0.06,6.42,0.19,7.05c0,0,4.17,3.23,8.8,3.23C373,702.03,378.39,698.46,380,683.83L380,683.83z"
				/>
		</g>
		<g>
			<path class="st17" d="M384.38,687.84c-0.37,0-0.75-0.03-1.15-0.09c0.11-0.93,0.31-2.75,0.22-3.7c1.25-0.95,6.73-5.3,9.19-10.05
				C392.14,679.47,390.38,687.84,384.38,687.84z"/>
			<path class="st17" d="M391.84,676.26c-0.76,5.01-2.67,11.08-7.46,11.08c-0.19,0-0.39-0.01-0.59-0.03
				c0.11-0.95,0.21-2.17,0.18-3.03C385.32,683.24,389.23,680.04,391.84,676.26 M393.34,669.4c0,0,0,0.18,0,0.49
				C393.35,669.73,393.35,669.57,393.34,669.4L393.34,669.4z M393.34,669.9c-0.22,6.41-10.43,13.93-10.43,13.93
				c0.23,0.83-0.23,4.32-0.23,4.32c0.6,0.13,1.17,0.19,1.7,0.19C392.89,688.34,393.34,672.88,393.34,669.9L393.34,669.9z"/>
		</g>
	</g>
	<g>
		<circle class="st21" cx="540" cy="540" r="340.51"/>
		<g>
			<path class="st6" d="M124.51,696.7c1.46-3.25,3.79-5.55,6.98-6.91l48.86-20.87c3.84-1.64,7.38-1.88,10.61-0.72
				c3.23,1.16,5.57,3.44,7.02,6.82l9.18,21.5c2.3,5.38,3.19,10.65,2.69,15.84c-0.5,5.18-2.24,9.78-5.21,13.78
				c-2.97,4-6.88,7.04-11.73,9.11c-7.01,2.8-13.71,3.02-20.11,0.67c-6.4-2.35-11.59-6.99-15.59-13.91
				c-0.84-1.42-1.56-2.84-2.17-4.27l-3.86-9.04l-10.02,4.28c-3.45,1.48-6.78,1.53-9.98,0.16c-3.11-1.25-5.35-3.46-6.7-6.62
				C123.1,703.27,123.11,699.99,124.51,696.7z M171.42,700.06l3.94,9.23c0.65,1.53,1.75,2.6,3.28,3.22
				c1.63,0.65,3.16,0.67,4.59,0.06c1.47-0.63,2.51-1.71,3.12-3.24c0.57-1.63,0.54-3.2-0.1-4.7l-3.94-9.23L171.42,700.06z"/>
			<path class="st6" d="M214.36,751.54c1.65,1.67,2.82,3.04,3.52,4.11c2.95,4.5,3.94,9.21,2.96,14.13l-0.27,0.17l9.99,5.46
				c0.94,0.4,1.73,1.09,2.37,2.07c0.95,1.45,1.2,3.03,0.74,4.72c-0.86,4.12-3.11,7.37-6.76,9.76l-30.85,20.2
				c-2.99,1.96-6.06,2.61-9.2,1.96c-3.14-0.65-5.65-2.42-7.53-5.29l-0.73-11.4l-0.44,0.29c-4.71-0.85-8.6-3.62-11.66-8.3
				c-1.01-1.54-1.97-3.39-2.87-5.55c-1.27-3.11-1.87-6.55-1.78-10.33c0.08-3.78,0.95-7.59,2.59-11.41c1.34-2.74,3.02-5.24,5.06-7.5
				c2.03-2.26,4.63-4.43,7.8-6.51c4.22-2.47,8.65-3.96,13.27-4.47c4.62-0.51,9.01-0.07,13.16,1.32
				C207.89,746.35,211.43,748.54,214.36,751.54z M189.21,769.09c-2.07,1.36-3.5,3.16-4.27,5.4c-0.76,2.4-0.48,4.59,0.82,6.58
				c0.78,1.18,1.83,2.1,3.17,2.75c1.34,0.65,2.81,0.89,4.44,0.71c1.24-0.05,2.32-0.31,3.23-0.78c0.72-0.39,1.69-0.98,2.9-1.77
				c2.76-2.44,3.91-5.18,3.44-8.22c-0.19-1.32-0.57-2.42-1.15-3.31c-1.07-1.63-2.58-2.65-4.54-3.06c-1.96-0.41-4.05-0.14-6.27,0.8
				c-0.32,0.16-0.59,0.31-0.82,0.44C189.92,768.76,189.6,768.91,189.21,769.09z"/>
			<path class="st6" d="M236.13,788.96c2.79,0.33,5.13,1.58,7.02,3.74l0.7,0.8l3.95-3.47c2.5-2.2,5.49-3.22,8.97-3.06
				c3.3,0.22,6.03,1.56,8.21,4.04c2.19,2.5,3.18,5.45,2.96,8.85c-0.38,3.54-1.83,6.41-4.33,8.6l-3.76,3.29l0.91,1.04
				c1.82,2.08,2.67,4.52,2.53,7.32c-0.19,2.9-1.34,5.27-3.44,7.12c-0.59,0.51-1.26,0.96-2.01,1.34c-0.75,0.38-1.56,0.65-2.43,0.82
				c-0.87,0.17-1.72,0.25-2.58,0.25c-2.95-0.19-5.41-1.33-7.38-3.42l-0.98-1.12l-20.77,18.21c-2.61,2.29-5.61,3.32-9.01,3.1
				c-3.28-0.14-6.04-1.49-8.28-4.04c-2.2-2.5-3.18-5.43-2.96-8.78c0.3-3.47,1.75-6.34,4.33-8.6l20.85-18.29l-0.56-0.64
				c-2.01-2.29-2.91-4.98-2.71-8.08c0.17-2.65,1.25-4.84,3.22-6.57C230.75,789.51,233.26,788.69,236.13,788.96z"/>
			<path class="st6" d="M283.23,834.01c2.04,1.15,3.55,2.15,4.52,2.98c4.08,3.51,6.33,7.77,6.75,12.76l-0.21,0.24l11.11,2.49
				c1.01,0.13,1.96,0.57,2.85,1.33c1.31,1.13,1.99,2.58,2.02,4.33c0.31,4.2-0.95,7.94-3.8,11.25l-24.07,27.93
				c-2.34,2.71-5.1,4.18-8.3,4.42c-3.2,0.24-6.1-0.77-8.7-3.01l-3.85-10.75l-0.35,0.4c-4.76,0.48-9.26-1.11-13.5-4.76
				c-1.4-1.2-2.83-2.72-4.29-4.54c-2.08-2.63-3.6-5.78-4.56-9.44c-0.96-3.66-1.18-7.55-0.66-11.69c0.53-3,1.46-5.87,2.79-8.61
				c1.33-2.74,3.23-5.54,5.7-8.41c3.38-3.54,7.22-6.19,11.52-7.96c4.3-1.76,8.64-2.55,13.01-2.36
				C275.58,830.82,279.59,831.94,283.23,834.01z M263.91,857.82c-1.62,1.88-2.49,4-2.61,6.37c-0.06,2.52,0.8,4.55,2.6,6.1
				c1.07,0.92,2.34,1.52,3.8,1.77c1.46,0.25,2.95,0.08,4.46-0.54c1.18-0.39,2.14-0.94,2.89-1.65c0.58-0.57,1.35-1.41,2.3-2.51
				c1.98-3.11,2.32-6.06,1.04-8.86c-0.54-1.21-1.22-2.17-2.02-2.86c-1.48-1.27-3.21-1.83-5.21-1.68c-2,0.15-3.93,0.98-5.8,2.5
				c-0.26,0.25-0.48,0.46-0.67,0.65C264.5,857.31,264.24,857.55,263.91,857.82z"/>
			<path class="st6" d="M292.41,913.5c-2.45-4.93-2.79-8.82-1.02-11.69c0.54-0.87,1.15-1.56,1.83-2.05c1.52-1.31,3.28-2,5.28-2.08
				c2-0.07,4.01,0.51,6.03,1.76c1.23,0.76,2.56,1.98,3.99,3.65l1.52,1.69l1.03,1.26c1.53,2.11,3.05,3.78,4.58,5.02l0.54,0.33
				l1.13,0.7c0.81,0.5,1.52,0.57,2.13,0.19c0.58-0.93,0.66-1.82,0.26-2.65c-0.01-0.05-0.05-0.12-0.11-0.22
				c-0.06-0.1-0.12-0.2-0.17-0.29c-0.05-0.09-0.09-0.17-0.13-0.24l-0.66-0.85l-1.57-1.6l-1.95-2.2l-1.48-1.54
				c-2.31-2.47-4.1-4.71-5.37-6.72c-1.27-2.02-2.08-3.9-2.43-5.66c-0.35-1.76-0.38-3.65-0.08-5.67c0.37-2.15,1.09-4.09,2.17-5.84
				c1.79-2.89,4.39-5.04,7.8-6.45c3.41-1.41,7.29-1.81,11.64-1.2c4.35,0.61,8.8,2.32,13.35,5.13c3.52,2.18,6.44,4.5,8.75,6.97
				c3.62,3.91,5.57,7.38,5.85,10.43c0.13,1.54-0.28,3.08-1.23,4.61c-0.91,1.48-2.22,2.55-3.93,3.22c-1.71,0.67-3.48,0.71-5.32,0.12
				c-0.83-0.27-1.63-0.63-2.38-1.1c-1.17-0.73-2.56-1.92-4.16-3.57l-2.38-2.41l-1.13-1.2l-1.32-1.19c-0.41-0.42-0.72-0.69-0.93-0.82
				c-1.78-1.1-2.81-1.69-3.08-1.78l-0.29,0.07l-0.44,0.1c-0.34,0.08-0.57,0.21-0.68,0.39c-0.24,0.39-0.19,1.01,0.17,1.85
				c0.08,0.13,0.15,0.26,0.2,0.38c0.05,0.12,0.12,0.24,0.2,0.38l0.66,0.85l1.08,1.29l2.58,3.1l1.89,2.1l1.59,1.98
				c1.55,1.79,2.97,4.09,4.24,6.87c1.17,2.68,1.65,5.4,1.42,8.16c-0.23,2.76-1.03,5.25-2.41,7.48c-2.91,4.7-7.5,7.44-13.77,8.22
				c-5.82,0.73-11.99-0.92-18.5-4.94c-0.84-0.52-2.16-1.42-3.95-2.7C298.14,921.27,294.46,917.39,292.41,913.5z"/>
			<path class="st6" d="M385.17,949.44c-1.56-4.52-2.42-9.09-2.55-13.71c-0.14-4.62,0.43-8.9,1.69-12.85
				c1.28-3.98,3.31-7.74,6.1-11.29c2.79-3.55,6.2-6.65,10.21-9.31c8.88-5.78,18.81-7.73,29.77-5.85c3,0.51,5.79,1.19,8.39,2.02
				c3.78,1.21,7.02,2.71,9.72,4.48c2.7,1.78,4.8,3.66,6.31,5.65c1.5,1.99,2.47,3.96,2.9,5.92c0.43,1.96,0.35,3.85-0.23,5.67
				c-0.79,2.46-2.15,4.31-4.07,5.56c-1.53,1.07-2.94,1.72-4.22,1.94c-1.28,0.22-2.8,0.05-4.55-0.51c-1.45-0.46-2.61-0.91-3.48-1.34
				c-1.66-0.87-3.84-2.36-6.54-4.5c-1.29-0.86-3.06-1.65-5.32-2.38c-3.98-1.28-7.77-1.21-11.36,0.18c-3.59,1.4-6.56,4.12-8.9,8.17
				c-0.53,0.95-0.98,2.01-1.36,3.19c-0.36,1.11-0.62,2.29-0.8,3.54c-0.38,3.04-0.25,5.76,0.4,8.16c0.64,2.4,1.82,4.42,3.52,6.07
				s3.89,2.89,6.55,3.75c3.34,1.07,7.56,1.55,12.65,1.43c0.08-0.01,0.25-0.01,0.5-0.01c0.26,0.01,0.48,0.02,0.66,0.04
				c1.27,0.11,2.59,0.38,3.97,0.83c3.31,1.06,5.58,2.96,6.82,5.7c1.07,2.58,1.23,5.03,0.49,7.35c-0.68,2.13-2.09,4.03-4.24,5.73
				c-2.72,2.22-6.8,3.46-12.24,3.72c-3.92,0.27-8.32-0.38-13.21-1.95c-2.46-0.79-4.99-1.82-7.6-3.11
				c-6.83-3.42-12.17-8.22-16.03-14.4C387.67,955.05,386.33,952.42,385.17,949.44z"/>
			<path class="st6" d="M481.99,990.01c-5.9-0.77-11.11-2.83-15.62-6.17c-4.51-3.34-7.87-7.52-10.07-12.54
				c-2.2-5.02-2.96-10.29-2.28-15.81c0.72-5.51,2.79-10.47,6.2-14.86c3.41-4.39,7.74-7.66,12.99-9.8
				c5.24-2.14,10.83-2.82,16.77-2.04c4.21,0.55,8.04,1.74,11.48,3.56c3.44,1.83,6.44,4.17,8.99,7.04c1.56,1.74,2.88,3.59,3.96,5.55
				c1.08,1.96,1.93,3.97,2.54,6.01c0.61,2.04,0.99,4.13,1.14,6.26c0.15,2.13,0.09,4.23-0.18,6.3c-0.45,3.48-1.49,6.81-3.1,9.99
				c-1.61,3.18-3.78,6.02-6.49,8.5c-2.72,2.49-5.85,4.46-9.4,5.93C493.61,990.1,487.96,990.79,481.99,990.01z M477.54,958.46
				c-0.39,2.99,0.11,5.53,1.49,7.64c1.39,2.11,3.25,3.32,5.61,3.63c0.21,0.03,0.77,0.01,1.67-0.05c3.89-0.28,6.42-2.54,7.58-6.78
				c0.29-1.11,0.46-1.89,0.52-2.34c0.27-2.07,0.03-3.89-0.73-5.45c-1.35-3.1-3.49-4.85-6.44-5.23c-2.92-0.38-5.44,0.75-7.57,3.41
				C478.51,954.69,477.8,956.42,477.54,958.46z"/>
			<path class="st6" d="M531.06,990.66c-2.43-2.35-3.72-5.2-3.85-8.57l-1.46-36.52c-0.14-3.54,0.9-6.5,3.13-8.87
				c2.23-2.38,5.02-3.63,8.38-3.76l9.79,5.56l-0.02-0.42c0.24-0.26,0.73-0.65,1.49-1.18c4.87-3.24,9.73-4.96,14.58-5.16
				c1.38-0.06,3.12,0.07,5.22,0.38c3.57,0.6,6.74,1.84,9.51,3.71c2.77,1.88,4.92,4.18,6.45,6.92c1.53,2.74,2.35,5.67,2.48,8.78
				l1.13,28.14c0.09,2.26-0.37,4.34-1.37,6.22c-1.01,1.88-2.41,3.41-4.2,4.58c-1.8,1.17-3.79,1.82-5.98,1.94
				c-3.4,0.14-6.35-0.92-8.85-3.16c-2.5-2.24-3.82-5.08-3.96-8.51l-0.91-22.83c-0.07-1.7-0.73-3.09-1.97-4.17
				c-1.19-1.26-2.63-1.86-4.33-1.79c-1.7,0.07-3.09,0.71-4.18,1.92c-1.19,1.4-1.74,2.91-1.68,4.53l0.91,22.72
				c0.14,3.4-0.95,6.35-3.26,8.85c-2.21,2.39-4.97,3.66-8.3,3.79S533.55,992.86,531.06,990.66z"/>
			<path class="st6" d="M606.12,984.81c-5.15-1.95-8.05-4.57-8.7-7.87c-0.2-1.01-0.22-1.92-0.05-2.75c0.22-1.99,1.04-3.7,2.46-5.11
				c1.42-1.42,3.29-2.35,5.62-2.81c1.42-0.28,3.23-0.29,5.41-0.04l2.26,0.2l1.61,0.22c2.55,0.51,4.81,0.7,6.77,0.56l0.63-0.12
				l1.3-0.26c0.94-0.18,1.5-0.62,1.69-1.31c-0.21-1.08-0.75-1.78-1.61-2.12c-0.04-0.03-0.12-0.06-0.23-0.09
				c-0.11-0.03-0.22-0.07-0.32-0.1c-0.1-0.04-0.18-0.06-0.26-0.08l-1.06-0.17l-2.24-0.1l-2.93-0.29l-2.14-0.12
				c-3.37-0.24-6.21-0.66-8.51-1.27c-2.3-0.61-4.18-1.44-5.63-2.49c-1.45-1.05-2.76-2.42-3.92-4.1c-1.19-1.82-1.98-3.74-2.38-5.76
				c-0.66-3.34-0.22-6.68,1.33-10.04c1.54-3.35,4.11-6.29,7.71-8.8c3.6-2.51,8.03-4.29,13.27-5.32c4.07-0.8,7.78-1.08,11.15-0.84
				c5.31,0.4,9.11,1.62,11.39,3.66c1.14,1.04,1.89,2.44,2.24,4.22c0.34,1.7,0.11,3.38-0.69,5.04s-2.07,2.89-3.82,3.7
				c-0.79,0.37-1.62,0.65-2.49,0.82c-1.35,0.27-3.18,0.34-5.48,0.21l-3.39-0.14l-1.65-0.11l-1.78,0.03c-0.58-0.03-1-0.02-1.24,0.03
				c-2.05,0.4-3.21,0.67-3.47,0.79l-0.17,0.25l-0.25,0.37c-0.2,0.29-0.27,0.54-0.23,0.75c0.09,0.45,0.55,0.87,1.38,1.24
				c0.15,0.04,0.29,0.09,0.41,0.14c0.12,0.05,0.25,0.1,0.41,0.14l1.06,0.17l1.67,0.21l4,0.51l2.81,0.26l2.51,0.37
				c2.36,0.26,4.96,0.97,7.79,2.15c2.68,1.17,4.88,2.84,6.59,5.01c1.71,2.17,2.82,4.54,3.33,7.12c1.07,5.42-0.43,10.55-4.49,15.4
				c-3.77,4.5-9.41,7.49-16.92,8.97c-0.97,0.19-2.55,0.43-4.73,0.72C615.61,986.61,610.27,986.27,606.12,984.81z"/>
			<path class="st6" d="M664.05,963.25c-5.72-3.94-9.66-8.93-11.81-14.97c-1.06-3.08-1.53-6.42-1.42-10.01s0.79-7.04,2.02-10.33
				c0.95-2.29,1.93-4.2,2.93-5.72c1.96-2.95,4.35-5.48,7.17-7.59c2.82-2.11,6.18-3.86,10.09-5.25c2.14-0.76,3.78-1.27,4.93-1.53
				c11.83-2.89,19.2-0.25,22.1,7.93c0.48,2.61,0.06,5-1.24,7.15c-1.3,2.16-3.3,3.71-6.01,4.67c-0.5,0.18-1.11,0.32-1.82,0.42
				l-0.54,0.08l-2.87,0.34l-1.46,0.18l-2.31,0.31c-0.65,0.08-1.59,0.34-2.83,0.78c-2.67,0.95-4.54,2.45-5.62,4.5
				c-1.07,2.05-1.17,4.33-0.28,6.84c0.63,1.47,1.45,2.6,2.44,3.39c1,0.79,2.26,1.35,3.81,1.66c1.64,0.28,3.3,0.13,4.96-0.47
				c0.9-0.32,1.95-0.81,3.15-1.46l0.3-0.11l3.3-2.13c0.88-0.58,2.13-1.21,3.73-1.89c3.34-1.19,6.32-1.12,8.95,0.2
				c2.63,1.32,4.57,3.73,5.81,7.24c0.48,2.31,0.21,4.56-0.82,6.75c-1.03,2.19-2.97,4.3-5.82,6.32c-2.85,2.03-6.6,3.87-11.23,5.52
				c-5.61,1.88-10.91,2.59-15.91,2.13C672.8,967.75,668.22,966.1,664.05,963.25z"/>
			<path class="st6" d="M697.88,891.82c-3.32-1.13-5.79-3.35-7.42-6.65c-1.55-3.15-1.76-6.47-0.65-9.98
				c0.58-1.63,1.41-3.06,2.5-4.31c1.08-1.24,2.37-2.23,3.87-2.97c3.15-1.55,6.43-1.7,9.84-0.46c3.32,1.21,5.76,3.4,7.33,6.58
				c1.61,3.27,1.86,6.55,0.75,9.82c-1.11,3.27-3.28,5.7-6.48,7.28C704.39,892.7,701.15,892.94,697.88,891.82z M735.66,948.13
				c-2.99,1.47-6.06,1.67-9.21,0.6c-3.15-1.07-5.48-3.13-6.98-6.19l-16.19-32.89c-0.99-2-1.4-4.08-1.26-6.22s0.82-4.11,2.01-5.9
				c1.19-1.79,2.79-3.18,4.79-4.16c1.99-0.94,4.05-1.32,6.18-1.15c2.14,0.17,4.1,0.85,5.88,2.02c1.78,1.18,3.17,2.78,4.18,4.81
				l16.09,32.7c1.52,3.08,1.74,6.21,0.65,9.39C740.73,944.32,738.68,946.65,735.66,948.13z"/>
			<path class="st6" d="M791.47,874.22c1.95,2.96,2.69,5.46,2.21,7.51c-0.47,2.05-2.19,4.05-5.15,6l-23.65,15.58
				c0.23,0.1,1.16,0.32,2.78,0.65c1.29,0.09,2.42,0.03,3.41-0.18c0.99-0.21,2.21-0.65,3.67-1.34c1.46-0.68,3.13-1.65,5.03-2.9
				c1.77-1.3,3.81-3.25,6.12-5.88c1.81-1.96,3.16-3.23,4.04-3.81c2.4-1.58,4.77-2.14,7.12-1.7c2.35,0.45,4.2,1.69,5.54,3.73
				c0.49,0.74,0.81,1.36,0.96,1.85c0.42,1.34,0.57,2.68,0.46,4.03c-0.11,1.35-0.51,2.74-1.19,4.19c-0.68,1.45-1.81,3.22-3.4,5.32
				c-2.04,2.45-4.28,4.71-6.73,6.79c-1.71,1.46-3.63,2.9-5.75,4.3c-4.41,2.9-8.88,4.93-13.41,6.07c-4.53,1.14-8.89,1.39-13.08,0.76
				c-4.19-0.63-8.02-2.1-11.48-4.39c-3.47-2.3-6.44-5.34-8.94-9.13c-2.11-3.4-3.48-7.09-4.09-11.08c-0.61-3.99-0.45-7.87,0.48-11.64
				c0.93-3.77,2.62-7.38,5.06-10.81c2.45-3.43,5.58-6.41,9.39-8.92c5.12-3.24,10.4-5.05,15.84-5.41c3.36-0.18,6.65,0.17,9.88,1.03
				c3.22,0.87,6.12,2.12,8.7,3.75C787.88,870.21,789.93,872.09,791.47,874.22z M758.55,893.31l10.83-7.13
				c-0.23-0.35-0.46-0.63-0.67-0.83c-2.37-2.64-5.39-2.75-9.06-0.33c-1.81,1.96-2.29,4.41-1.44,7.38
				C758.31,892.82,758.43,893.13,758.55,893.31z"/>
			<path class="st6" d="M821.03,889.6c-3.38-0.19-6.21-1.51-8.51-3.97l-24.98-26.69c-2.42-2.58-3.56-5.5-3.43-8.76
				c0.13-3.25,1.43-6.03,3.88-8.33l11.05-2.19l-0.29-0.31c0.01-0.35,0.13-0.97,0.36-1.87c1.56-5.64,4.12-10.11,7.66-13.43
				c1.01-0.94,2.41-1.99,4.2-3.13c3.09-1.88,6.3-3.01,9.62-3.4c3.32-0.39,6.45-0.05,9.4,1.03c2.95,1.08,5.48,2.75,7.61,5.03
				l19.24,20.56c1.55,1.66,2.56,3.52,3.03,5.61c0.47,2.08,0.41,4.16-0.19,6.21c-0.59,2.06-1.68,3.85-3.26,5.38
				c-2.48,2.32-5.4,3.46-8.76,3.39c-3.36-0.06-6.21-1.35-8.56-3.85l-15.61-16.68c-1.16-1.24-2.57-1.86-4.22-1.87
				c-1.72-0.18-3.21,0.31-4.45,1.47c-1.24,1.16-1.88,2.56-1.91,4.18c0.01,1.83,0.58,3.34,1.69,4.53l15.54,16.6
				c2.32,2.48,3.43,5.43,3.32,8.83c-0.11,3.25-1.38,6.02-3.81,8.29C827.24,888.51,824.36,889.63,821.03,889.6z"/>
			<path class="st6" d="M827.19,808.73c-0.14-2.81,0.69-5.32,2.5-7.55l0.67-0.83l-4.08-3.31c-2.59-2.1-4.1-4.87-4.53-8.33
				c-0.34-3.29,0.52-6.21,2.6-8.77c2.1-2.59,4.84-4.05,8.23-4.41c3.55-0.22,6.62,0.72,9.21,2.82l3.88,3.15l0.87-1.07
				c1.74-2.15,4-3.39,6.79-3.73c2.89-0.3,5.42,0.43,7.59,2.19c0.61,0.49,1.16,1.08,1.66,1.75c0.5,0.68,0.9,1.43,1.22,2.25
				c0.31,0.82,0.54,1.66,0.68,2.5c0.31,2.94-0.4,5.56-2.13,7.85l-0.94,1.16l21.46,17.4c2.7,2.19,4.22,4.97,4.57,8.36
				c0.42,3.26-0.45,6.2-2.59,8.84c-2.1,2.59-4.81,4.05-8.15,4.4c-3.47,0.29-6.54-0.65-9.21-2.82l-21.54-17.47l-0.54,0.66
				c-1.92,2.37-4.42,3.71-7.51,4.03c-2.64,0.28-4.98-0.41-7.01-2.06C828.64,813.94,827.42,811.6,827.19,808.73z"/>
			<path class="st6" d="M907.04,733.7c3.03,1.83,4.78,3.77,5.23,5.83c0.46,2.06-0.23,4.6-2.06,7.63l-14.64,24.24
				c0.25-0.01,1.18-0.22,2.79-0.61c1.2-0.48,2.2-1.02,3-1.63c0.8-0.61,1.72-1.54,2.74-2.79c1.02-1.25,2.12-2.84,3.29-4.78
				c1.04-1.93,2.04-4.58,2.99-7.94c0.79-2.54,1.46-4.27,2.01-5.18c1.48-2.46,3.38-3.99,5.69-4.6c2.31-0.61,4.52-0.28,6.61,0.98
				c0.76,0.46,1.31,0.88,1.66,1.25c0.95,1.03,1.67,2.17,2.15,3.44c0.48,1.26,0.72,2.69,0.73,4.29c0.01,1.6-0.25,3.69-0.77,6.27
				c-0.79,3.08-1.84,6.09-3.15,9.02c-0.91,2.06-2.03,4.18-3.34,6.36c-2.73,4.52-5.89,8.27-9.49,11.24s-7.42,5.08-11.48,6.32
				c-4.05,1.24-8.14,1.56-12.26,0.98c-4.12-0.58-8.12-2.04-12-4.39c-3.37-2.16-6.19-4.91-8.46-8.24c-2.27-3.33-3.8-6.9-4.58-10.71
				c-0.79-3.8-0.81-7.78-0.08-11.94c0.73-4.15,2.27-8.18,4.64-12.1c3.22-5.13,7.21-9.03,11.97-11.7c2.96-1.61,6.08-2.71,9.36-3.32
				c3.28-0.6,6.44-0.73,9.47-0.37C902.07,731.62,904.74,732.43,907.04,733.7z M885.54,765.09l6.7-11.1
				c-0.36-0.22-0.69-0.37-0.96-0.46c-3.28-1.36-6.05-0.16-8.32,3.6c-0.79,2.54-0.17,4.97,1.87,7.28
				C885.12,764.75,885.35,764.98,885.54,765.09z"/>
			<path class="st6" d="M939.69,733.82c-4.45,3.23-8.24,4.22-11.36,2.95c-0.95-0.39-1.73-0.88-2.33-1.47
				c-1.54-1.28-2.52-2.9-2.92-4.86s-0.16-4.04,0.74-6.24c0.55-1.34,1.53-2.86,2.94-4.54l1.41-1.78l1.07-1.23
				c1.83-1.86,3.22-3.64,4.19-5.35l0.24-0.59l0.5-1.23c0.36-0.89,0.31-1.6-0.16-2.13c-1.02-0.41-1.9-0.35-2.66,0.18
				c-0.05,0.02-0.11,0.07-0.2,0.15c-0.09,0.08-0.17,0.15-0.26,0.21c-0.08,0.06-0.15,0.12-0.21,0.17l-0.73,0.79l-1.31,1.82
				l-1.85,2.29l-1.27,1.72c-2.05,2.68-3.96,4.82-5.74,6.41c-1.78,1.59-3.5,2.7-5.18,3.34c-1.67,0.64-3.54,0.98-5.58,1.03
				c-2.18-0.01-4.22-0.4-6.12-1.17c-3.15-1.28-5.7-3.49-7.66-6.62c-1.96-3.13-3-6.89-3.12-11.28c-0.12-4.39,0.82-9.06,2.84-14.02
				c1.56-3.84,3.37-7.1,5.42-9.78c3.25-4.22,6.35-6.72,9.31-7.51c1.5-0.38,3.08-0.24,4.75,0.44c1.61,0.66,2.88,1.77,3.83,3.34
				c0.95,1.57,1.28,3.31,1,5.23c-0.12,0.87-0.35,1.71-0.69,2.53c-0.52,1.28-1.46,2.85-2.83,4.7l-1.98,2.75l-1,1.32l-0.96,1.5
				c-0.34,0.47-0.56,0.82-0.66,1.05c-0.79,1.94-1.2,3.05-1.25,3.34l0.12,0.28l0.17,0.42c0.14,0.32,0.3,0.52,0.5,0.6
				c0.43,0.17,1.03,0.02,1.8-0.47c0.12-0.1,0.23-0.19,0.34-0.26c0.11-0.07,0.22-0.16,0.34-0.26l0.73-0.79l1.09-1.28l2.62-3.06
				l1.76-2.21l1.69-1.89c1.51-1.83,3.54-3.61,6.07-5.33c2.45-1.6,5.05-2.52,7.81-2.76c2.75-0.24,5.35,0.14,7.77,1.13
				c5.12,2.08,8.58,6.16,10.4,12.21c1.69,5.62,1.09,11.97-1.8,19.06c-0.37,0.92-1.04,2.37-2,4.35
				C946.4,726.88,943.19,731.15,939.69,733.82z"/>
		</g>
	</g>
</g>
</svg>
