<?xml version="1.0" encoding="UTF-8"?>
<svg xmlns="http://www.w3.org/2000/svg" version="1.1" viewBox="0 0 1027.1 419.9">
  <defs>
    <style>
      .cls-1, .cls-2 {
        fill: #fff;
      }

      .cls-3 {
        stroke-miterlimit: 10;
      }

      .cls-3, .cls-2, .cls-4 {
        stroke: #fff;
        stroke-width: 12px;
      }

      .cls-3, .cls-4 {
        fill: none;
      }

      .cls-2, .cls-4 {
        stroke-linecap: round;
        stroke-linejoin: round;
      }
    </style>
  </defs>
  <!-- Generator: Adobe Illustrator 28.7.1, SVG Export Plug-In . SVG Version: 1.2.0 Build 142)  -->
  <g>
    <g id="Camada_1">
      <g id="Camada_1-2" data-name="Camada_1">
        <path class="cls-4" d="M149.6,375.1s-63.2-10.1-68.8-54.2c0,0-14.5-35.2-4.5-58.7,0,0,21.6,0,34.8,11.2,0,0,34.5-20.1,51.8-11.2,0,0,18.1-28.5,29.2-31.3,0,0,17.2,16.8,18.3,44.2,0,0,15.1,17.9,0,76,0,0-22.9-9.5-29.1-30.2,0,0,18.4-62,29.1-45.8,0,0,53.1-44.2,95-19.6,0,0,38.6,10.6,46.4,30.2,0,0,6.7,45.8-5.6,67.1,0,0-17.9-29.1-22.4-33.5,0,0,5.6,20.1-1.1,39.1,0,0-2.8,34.7-66.5,30.7,0,0-63.2,45.3-138.1,13.4-74.9-31.9-79.4-111.4-68.2-148.7,0,0,100.1-206.3,241.5-57"/>
        <path class="cls-3" d="M104.1,21.1s-36.6,34.8-22.9,75.1c0,0,9.9,41.2,45.5,41.8,0,0,29.9-7.8,36.1-35.5,0,0,4.4-32-17.1-75.4,0,0-16.6-28.6-41.5-6h0Z"/>
        <path class="cls-3" d="M242.3,13s40.3,31.4,30.5,73.2c0,0-5.9,42.4-41.5,46.5,0,0-30.9-4.9-39.8-32.1,0,0-7.6-31.8,9.7-77.5,0,0,13.8-30.4,41.2-10.1Z"/>
        <path class="cls-3" d="M345.9,87.1s19.4,38.8-2,71c0,0-20.1,22.2-44.3,16.3,0,0-26-12.3-21.7-31.7,0,0,4.1-35.1,39.7-64.7,0,0,16.6-9,28.3,9.1Z"/>
        <path class="cls-3" d="M8.6,113.3s-11.8,41.7,15.2,69.3c0,0,23.9,18,46.6,7.8,0,0,23.2-16.9,15.4-35.2,0,0-10.6-33.7-51.1-56.1,0,0-18-5.7-26.1,14.2h0Z"/>
        <path class="cls-2" d="M153.9,341s-18.2-10-2.4-9.2c0,0,14.7-9.9,2.4,9.2Z"/>
        <path class="cls-2" d="M270.4,341.1s-17.9-8.9-.3-4.3c0,0,20-5.7.3,4.3Z"/>
        <g>
          <path class="cls-1" d="M420.8,215.3c-2.3-2.5-3.4-5.3-3.4-8.6v-49.9c0-3.9,1.1-7.1,3.3-9.4,2.2-2.4,5-3.5,8.5-3.5h21.9c5.5,0,10.4,1.2,14.7,3.5s7.6,5.5,10,9.6c2.4,4,3.5,8.5,3.5,13.5-.2,7.1-2.4,12.9-6.8,17.6-4.4,4.7-10.3,7.4-17.8,8.3-1.5.2-3,.3-4.5.3h-9.2v10.2c0,3.5-1.2,6.4-3.5,8.7-2.2,2.2-5,3.3-8.2,3.3s-6.1-1.2-8.5-3.6h0ZM441,176.1h9.4c1.6,0,2.9-.5,4-1.6,1.2-1.2,1.7-2.5,1.7-3.9s-.5-2.8-1.6-3.9c-1.2-1.1-2.6-1.6-4.1-1.6h-9.4v11.1h0Z"/>
          <path class="cls-1" d="M503.4,162c2.2-.4,3.8-.6,5-.6,5,0,9.2,1.6,12.6,4.9v.3l9.4-5c.8-.5,1.7-.8,2.8-.8,1.6,0,3,.6,4.1,1.8,2.8,2.8,4.2,6.2,4.2,10.3v34.6c0,3.4-1.1,6.1-3.2,8.2s-4.8,3.2-8,3.2l-9.3-5.3v.5c-3.1,3.3-7.3,4.9-12.5,4.9s-3.7-.2-5.8-.6c-3.1-.6-6.1-1.9-9-3.9-2.9-2-5.5-4.6-7.6-7.9-1.5-2.5-2.6-5.1-3.3-7.8s-1.1-5.9-1.1-9.5c.2-4.6,1.3-8.8,3.3-12.7s4.6-7.1,7.8-9.6c3.2-2.5,6.8-4.2,10.6-5h0ZM504.3,190.8c0,2.3.7,4.4,2,6.1,1.5,1.8,3.4,2.7,5.6,2.7s2.6-.4,3.8-1.1c1.2-.7,2.1-1.8,2.8-3.1.6-1,1-2,1-2.9,0-.8,0-1.8,0-3.2-.5-3.4-2.1-5.7-4.7-6.9-1.1-.5-2.2-.8-3.2-.8-1.8,0-3.4.7-4.7,2-1.3,1.3-2.2,3.1-2.6,5.3,0,.3,0,.6,0,.9s0,.6-.1,1h0Z"/>
          <path class="cls-1" d="M545.1,165c2-1.8,4.3-2.6,7-2.6h1v-4.9c0-3.1,1.1-5.9,3.4-8.2,2.2-2.2,4.8-3.3,7.9-3.3s5.8,1.1,8.1,3.4c2.3,2.5,3.4,5.2,3.4,8.4v4.7h1.3c2.6,0,4.8.9,6.7,2.7,1.9,1.9,2.9,4.2,2.9,6.8s0,1.5-.3,2.2c-.2.8-.5,1.5-.9,2.2-.4.7-.9,1.4-1.4,2-2,2-4.3,3-7,3.1h-1.4v25.9c0,3.3-1.1,6-3.4,8.3-2.1,2.2-4.8,3.3-8,3.3s-5.8-1.1-8-3.3c-2.3-2.4-3.4-5.2-3.4-8.4v-26h-.8c-2.9,0-5.3-1-7.4-3.1s-2.6-3.9-2.6-6.3,1-5,2.9-6.8h0Z"/>
          <path class="cls-1" d="M607.6,162c2.2-.4,3.8-.6,5-.6,5,0,9.2,1.6,12.6,4.9v.3l9.4-5c.8-.5,1.7-.8,2.8-.8,1.6,0,3,.6,4.1,1.8,2.8,2.8,4.2,6.2,4.2,10.3v34.6c0,3.4-1.1,6.1-3.2,8.2s-4.8,3.2-8,3.2l-9.3-5.3v.5c-3.1,3.3-7.3,4.9-12.5,4.9s-3.7-.2-5.8-.6c-3.1-.6-6.1-1.9-9-3.9-2.9-2-5.5-4.6-7.6-7.9-1.5-2.5-2.6-5.1-3.3-7.8s-1.1-5.9-1.1-9.5c.2-4.6,1.3-8.8,3.3-12.7s4.6-7.1,7.8-9.6c3.2-2.5,6.8-4.2,10.6-5h0ZM608.5,190.8c0,2.3.7,4.4,2,6.1,1.5,1.8,3.4,2.7,5.6,2.7s2.6-.4,3.8-1.1c1.2-.7,2.1-1.8,2.8-3.1.6-1,1-2,1-2.9,0-.8,0-1.8,0-3.2-.5-3.4-2.1-5.7-4.7-6.9-1.1-.5-2.2-.8-3.2-.8-1.8,0-3.4.7-4.7,2-1.3,1.3-2.2,3.1-2.6,5.3,0,.3,0,.6,0,.9s0,.6-.1,1h0Z"/>
          <path class="cls-1" d="M656.3,215.1c-4.4-2.7-6.6-5.7-6.6-8.8s.2-1.8.5-2.5c.6-1.8,1.6-3.2,3.2-4.3,1.6-1,3.5-1.6,5.7-1.6s3,.3,5,1l2,.6,1.5.5c2.3.9,4.3,1.5,6.1,1.7h1.8c.9,0,1.5-.3,1.8-.9,0-1-.4-1.8-1.1-2.2,0,0,0,0-.2-.1s-.2,0-.3-.2c0,0-.2,0-.2-.1l-1-.3-2-.5-2.6-.8-1.9-.5c-3.1-.8-5.6-1.7-7.6-2.7-2-1-3.6-2.1-4.7-3.3-1.2-1.2-2.1-2.7-2.9-4.5-.8-1.9-1.2-3.8-1.2-5.7,0-3.2,1-6.2,3-9,2-2.8,4.9-5,8.7-6.7s8.2-2.5,13.2-2.5,7.4.4,10.4,1.2c4.8,1.3,8.1,3.1,9.8,5.4.9,1.2,1.3,2.6,1.3,4.3s-.5,3.1-1.5,4.5c-1,1.4-2.4,2.3-4.2,2.7-.8.2-1.6.3-2.4.3-1.3,0-3-.3-5.1-.8l-3.1-.8-1.5-.4-1.7-.3c-.5-.1-.9-.2-1.2-.2-2,0-3.1,0-3.3,0l-.2.2-.3.3c-.2.2-.3.5-.3.7,0,.4.3.9,1,1.4.1,0,.2.1.3.2s.2.1.3.2l1,.3,1.5.5,3.6,1.2,2.5.8,2.2.8c2.1.7,4.4,1.8,6.8,3.4,2.3,1.6,4,3.5,5.2,5.8s1.8,4.7,1.8,7.2c0,5.2-2.3,9.6-6.9,13.4-4.3,3.5-10,5.2-17.2,5.2s-2.4,0-4.5-.2c-6.2-.5-11-1.7-14.6-3.8h0Z"/>
          <path class="cls-1" d="M424.9,326.5c-2.7-3.6-4.8-7.4-6.2-11.5-1.5-4.1-2.2-8.1-2.2-12s.7-7.9,2.2-11.8c1.5-4,3.6-7.7,6.5-11.2,6.3-7.7,14.6-12.3,24.9-13.8,2.8-.4,5.5-.6,8.1-.6,3.7,0,7,.4,10,1.2,2.9.8,5.3,1.9,7.2,3.2s3.3,2.8,4.3,4.5,1.4,3.3,1.4,5.1-.7,4.5-2,6.1c-1.1,1.4-2.1,2.4-3.2,2.9-1.1.6-2.5.8-4.2.8s-2.6,0-3.5-.2c-1.7-.3-4.1-1-7.1-2.1-1.4-.4-3.2-.6-5.4-.6-3.9,0-7.3,1.1-10.1,3.4-2.8,2.3-4.7,5.6-5.6,9.8-.2,1-.3,2.1-.3,3.2s.1,2.2.3,3.4c.5,2.8,1.4,5.2,2.7,7.2s2.9,3.4,4.9,4.4,4.3,1.5,6.9,1.5,7.2-.8,11.7-2.3c0,0,.2,0,.5-.2s.4-.1.6-.2c1.2-.3,2.4-.4,3.8-.4,3.3,0,5.8,1,7.7,3.1,1.7,2,2.5,4.1,2.5,6.4s-.7,4.2-2.1,6.3c-1.8,2.8-5.1,5-9.9,6.8-3.4,1.4-7.5,2-12.4,2s-5-.2-7.7-.6c-7.1-1.1-13.2-3.8-18.4-8.3-2-1.6-3.9-3.6-5.8-5.9h0Z"/>
          <path class="cls-1" d="M515.1,341.8c-5.6,0-10.7-1.3-15.3-3.8-4.6-2.6-8.2-6-10.9-10.4-2.7-4.4-4-9.2-4-14.4,0-5.2,1.3-10.1,4-14.6,2.6-4.5,6.3-8.1,10.9-10.7s9.7-3.9,15.3-3.9,7.7.6,11.1,1.9c3.4,1.3,6.5,3.1,9.2,5.5,1.7,1.4,3.1,3,4.4,4.7s2.3,3.5,3.1,5.3c.8,1.8,1.4,3.7,1.8,5.7s.6,3.9.6,5.9c0,3.3-.6,6.5-1.7,9.7s-2.8,6.1-5,8.7-4.9,4.9-8,6.7c-4.7,2.7-9.8,4-15.5,4h0ZM507.2,313c0,2.8.8,5.1,2.3,6.9,1.5,1.8,3.4,2.7,5.7,2.7s.7,0,1.5-.2c3.6-.7,5.7-3.1,6.2-7.2.1-1.1.2-1.8.2-2.2,0-2-.5-3.6-1.3-5-1.6-2.7-3.8-4.1-6.6-4.1s-5,1.4-6.6,4.1c-.9,1.5-1.3,3.2-1.3,5.1h0Z"/>
          <path class="cls-1" d="M553.6,338.2c-2.2-2.3-3.3-5-3.3-8.2v-34.3c0-3.3,1.1-6.1,3.3-8.2s4.8-3.2,8-3.2l9,5.6v-.4c.2-.2.7-.6,1.5-1,4.7-2.9,9.3-4.3,13.9-4.3s2.9.2,4.9.5c3.3.7,6.2,2,8.8,3.8,2.5,1.9,4.5,4.1,5.8,6.7,1.3,2.6,2,5.4,2,8.3v26.4c0,2.1-.5,4.1-1.5,5.8s-2.4,3.1-4.1,4.1-3.6,1.6-5.7,1.6c-3.2,0-5.9-1.1-8.2-3.3s-3.4-4.9-3.4-8.1v-21.4c0-1.6-.6-2.9-1.7-4-1.1-1.2-2.4-1.8-4-1.8s-2.9.5-4,1.7c-1.2,1.3-1.8,2.7-1.8,4.2v21.3c0,3.2-1.1,5.9-3.4,8.2s-4.8,3.2-7.9,3.2-5.8-1.1-8.1-3.2h0Z"/>
          <path class="cls-1" d="M617.8,337.6c-4.4-2.7-6.6-5.7-6.6-8.8s.2-1.8.5-2.5c.6-1.8,1.6-3.2,3.2-4.3,1.6-1,3.5-1.6,5.7-1.6s3,.3,5,1l2,.6,1.5.5c2.3.9,4.3,1.5,6.1,1.8h1.8c.9,0,1.5-.3,1.8-.9,0-1-.4-1.8-1.1-2.2,0,0,0,0-.2-.1s-.2,0-.3-.2-.2,0-.2-.1l-1-.3-2-.5-2.6-.8-1.9-.5c-3.1-.8-5.6-1.7-7.6-2.7s-3.6-2.1-4.7-3.3c-1.2-1.2-2.1-2.7-2.9-4.5-.8-1.9-1.2-3.8-1.2-5.7,0-3.2,1-6.2,3-9,2-2.8,4.9-5,8.7-6.7,3.8-1.7,8.2-2.5,13.2-2.5s7.4.4,10.4,1.2c4.8,1.3,8.1,3.1,9.8,5.4.9,1.2,1.3,2.6,1.3,4.3s-.5,3.1-1.5,4.5c-1,1.4-2.4,2.3-4.2,2.7-.8.2-1.6.3-2.4.3-1.3,0-3-.3-5.1-.8l-3.1-.8-1.5-.4-1.7-.3c-.5-.1-.9-.2-1.2-.2-2,0-3.1,0-3.3,0l-.2.2-.3.3c-.2.2-.3.5-.3.7,0,.4.3.9,1,1.4.1,0,.2.1.3.2s.2.1.3.2l1,.3,1.5.5,3.6,1.2,2.5.8,2.2.8c2.1.7,4.4,1.8,6.8,3.4,2.3,1.6,4,3.5,5.2,5.8s1.8,4.7,1.8,7.2c0,5.2-2.3,9.6-6.9,13.4-4.3,3.5-10,5.2-17.2,5.2s-2.4,0-4.5-.2c-6.2-.5-11-1.8-14.6-3.8h0Z"/>
          <path class="cls-1" d="M670,329.6c-3.8-5.3-5.7-10.9-5.7-17,0-3.1.7-6.2,1.9-9.3,1.2-3.1,2.9-6,5-8.5,1.6-1.7,3-3.1,4.4-4.1,2.7-2,5.6-3.5,8.7-4.5s6.7-1.5,10.6-1.5,3.7,0,4.8.2c11.4,1.2,17,5.8,17,14-.4,2.5-1.5,4.4-3.3,5.9-1.8,1.5-4.1,2.2-6.8,2.2s-1.1,0-1.8-.2h-.5c0,0-2.6-.7-2.6-.7l-1.3-.3-2.1-.5c-.6-.1-1.5-.2-2.7-.2-2.7,0-4.8.7-6.4,2.2-1.6,1.5-2.4,3.5-2.4,6,0,1.5.5,2.8,1.1,3.8s1.6,1.9,2.8,2.7c1.4.8,2.9,1.2,4.5,1.2s2,0,3.2-.3h.3l3.6-.8c1-.2,2.3-.4,3.9-.5,3.3,0,5.9,1,7.8,3s2.9,4.7,2.9,8.2c-.3,2.2-1.2,4.1-2.8,5.7-1.6,1.6-4,2.9-7.1,3.8-3.2.9-7,1.3-11.7,1.3-5.5,0-10.5-1.1-14.7-3.1-4.3-2-7.8-4.9-10.6-8.7h0Z"/>
          <path class="cls-1" d="M724.4,278.5c-2.3-2.3-3.5-5.2-3.5-8.7s1.2-6.2,3.6-8.7c1.2-1.1,2.5-2,3.9-2.6,1.4-.6,2.9-.9,4.5-.9,3.3,0,6.1,1.2,8.5,3.7,2.3,2.4,3.4,5.2,3.4,8.6s-1.2,6.3-3.4,8.6-5.1,3.4-8.5,3.4-6.2-1.2-8.5-3.4h0ZM732.9,341.5c-3.1,0-5.8-1.1-8-3.3-2.2-2.2-3.3-4.9-3.3-8.1v-34.4c0-2.1.5-4,1.5-5.8s2.4-3.1,4.1-4.1c1.7-1,3.7-1.5,5.8-1.5,2.1,0,4,.6,5.7,1.6,1.7,1,3.1,2.4,4.1,4.1,1,1.7,1.5,3.7,1.5,5.8v34.2c0,3.2-1.1,6-3.3,8.2-2.2,2.2-4.9,3.3-8.1,3.3h0Z"/>
          <path class="cls-1" d="M809.1,309.2c0,3.3-.7,5.7-2.1,7-1.4,1.4-3.8,2-7.1,2h-26.6c.1.2.8.8,1.8,1.9,1,.7,1.9,1.3,2.8,1.6s2.1.6,3.6.8c1.5.2,3.3.3,5.4.3,2.1,0,4.7-.6,7.8-1.5,2.4-.6,4.1-.9,5.1-.9,2.7,0,4.8.8,6.5,2.3,1.6,1.6,2.4,3.5,2.4,5.8s0,1.5-.2,1.9c-.4,1.3-.9,2.4-1.7,3.4-.8,1-1.8,1.9-3.1,2.7-1.3.8-3.1,1.6-5.4,2.4-2.9.9-5.8,1.5-8.8,1.8-2.1.3-4.3.4-6.7.4-5,0-9.5-.7-13.6-2.2-4.1-1.5-7.7-3.5-10.6-6.2s-5.2-5.8-6.7-9.4c-1.5-3.6-2.3-7.5-2.3-11.8,0-3.8.9-7.3,2.5-10.8s3.7-6.4,6.4-8.9c2.7-2.5,5.9-4.4,9.5-5.9s7.7-2.1,12-2.1c5.7,0,10.8,1.4,15.2,3.9,2.7,1.6,5.1,3.6,7.2,5.9,2.1,2.3,3.7,4.8,4.9,7.4,1.2,2.6,1.8,5.1,1.9,7.6h0ZM773.5,307.1h12.2c0-.4,0-.7,0-1-.5-3.3-2.8-4.9-6.9-4.9-2.4.6-4.1,2.3-4.9,5-.1.4-.2.7-.2.9h0Z"/>
          <path class="cls-1" d="M817.1,338.2c-2.2-2.3-3.3-5-3.3-8.2v-34.3c0-3.3,1.1-6.1,3.3-8.2s4.8-3.2,8-3.2l9,5.6v-.4c.2-.2.7-.6,1.5-1,4.7-2.9,9.3-4.3,13.9-4.3s2.9.2,4.9.5c3.3.7,6.2,2,8.8,3.8,2.5,1.9,4.5,4.1,5.8,6.7,1.3,2.6,2,5.4,2,8.3v26.4c0,2.1-.5,4.1-1.5,5.8s-2.4,3.1-4.1,4.1-3.6,1.6-5.7,1.6c-3.2,0-5.9-1.1-8.2-3.3s-3.4-4.9-3.4-8.1v-21.4c0-1.6-.6-2.9-1.7-4-1.1-1.2-2.4-1.8-4-1.8s-2.9.5-4,1.7c-1.2,1.3-1.8,2.7-1.8,4.2v21.3c0,3.2-1.1,5.9-3.4,8.2s-4.8,3.2-7.9,3.2-5.8-1.1-8.1-3.2h0Z"/>
          <path class="cls-1" d="M874.3,287.6c2-1.8,4.3-2.6,7-2.6h1v-4.9c0-3.1,1.1-5.9,3.4-8.2,2.2-2.2,4.8-3.3,7.9-3.3s5.8,1.1,8.1,3.4c2.3,2.5,3.4,5.2,3.4,8.4v4.7h1.3c2.6,0,4.8.9,6.7,2.7,1.9,1.9,2.9,4.2,2.9,6.8s0,1.5-.3,2.2-.5,1.5-.9,2.2c-.4.7-.9,1.4-1.4,2-2,2-4.3,3-7,3.1h-1.4v25.9c0,3.3-1.1,6-3.4,8.3-2.1,2.2-4.8,3.3-8,3.3s-5.8-1.1-8-3.3c-2.3-2.4-3.4-5.2-3.4-8.4v-26h-.8c-2.9,0-5.3-1-7.4-3.1s-2.6-3.9-2.6-6.3,1-5,2.9-6.8h0Z"/>
          <path class="cls-1" d="M974.7,309.2c0,3.3-.7,5.7-2.1,7-1.4,1.4-3.8,2-7.1,2h-26.6c.1.2.8.8,1.8,1.9,1,.7,1.9,1.3,2.8,1.6s2.1.6,3.6.8c1.5.2,3.3.3,5.4.3,2.1,0,4.7-.6,7.8-1.5,2.4-.6,4.1-.9,5.1-.9,2.7,0,4.8.8,6.5,2.3,1.6,1.6,2.4,3.5,2.4,5.8s0,1.5-.2,1.9c-.4,1.3-.9,2.4-1.7,3.4-.8,1-1.8,1.9-3.1,2.7-1.3.8-3.1,1.6-5.4,2.4-2.9.9-5.8,1.5-8.8,1.8-2.1.3-4.3.4-6.7.4-5,0-9.5-.7-13.6-2.2-4.1-1.5-7.7-3.5-10.6-6.2s-5.2-5.8-6.7-9.4c-1.5-3.6-2.3-7.5-2.3-11.8,0-3.8.9-7.3,2.5-10.8s3.7-6.4,6.4-8.9c2.7-2.5,5.9-4.4,9.5-5.9s7.7-2.1,12-2.1c5.7,0,10.8,1.4,15.2,3.9,2.7,1.6,5.1,3.6,7.2,5.9,2.1,2.3,3.7,4.8,4.9,7.4,1.2,2.6,1.8,5.1,1.9,7.6h0ZM939.1,307.1h12.2c0-.4,0-.7,0-1-.5-3.3-2.8-4.9-6.9-4.9-2.4.6-4.1,2.3-4.9,5-.1.4-.2.7-.2.9h0Z"/>
          <path class="cls-1" d="M984,337.6c-4.4-2.7-6.6-5.7-6.6-8.8s.2-1.8.5-2.5c.6-1.8,1.6-3.2,3.2-4.3,1.6-1,3.5-1.6,5.7-1.6s3,.3,5,1l2,.6,1.5.5c2.3.9,4.3,1.5,6.1,1.8h1.8c.9,0,1.5-.3,1.8-.9,0-1-.4-1.8-1.1-2.2,0,0,0,0-.2-.1s-.2,0-.3-.2-.2,0-.2-.1l-.9-.3-2-.5-2.6-.8-1.9-.5c-3.1-.8-5.6-1.7-7.6-2.7s-3.6-2.1-4.7-3.3c-1.2-1.2-2.1-2.7-2.9-4.5-.8-1.9-1.2-3.8-1.2-5.7,0-3.2,1-6.2,3-9,2-2.8,4.9-5,8.7-6.7,3.8-1.7,8.2-2.5,13.2-2.5s7.4.4,10.4,1.2c4.8,1.3,8.1,3.1,9.8,5.4.9,1.2,1.3,2.6,1.3,4.3s-.5,3.1-1.5,4.5c-1,1.4-2.4,2.3-4.2,2.7-.8.2-1.6.3-2.4.3-1.3,0-3-.3-5.1-.8l-3.1-.8-1.5-.4-1.7-.3c-.5-.1-.9-.2-1.2-.2-2,0-3.1,0-3.3,0l-.2.2-.3.3c-.2.2-.3.5-.3.7,0,.4.3.9,1.1,1.4.1,0,.2.1.3.2s.2.1.3.2l.9.3,1.5.5,3.6,1.2,2.5.8,2.2.8c2.1.7,4.4,1.8,6.8,3.4,2.3,1.6,4,3.5,5.2,5.8s1.8,4.7,1.8,7.2c0,5.2-2.3,9.6-6.9,13.4-4.3,3.5-10,5.2-17.2,5.2s-2.4,0-4.5-.2c-6.2-.5-11-1.8-14.6-3.8h0Z"/>
        </g>
      </g>
    </g>
  </g>
</svg>