<svg width="756" height="755" viewBox="0 0 756 755" fill="none" xmlns="http://www.w3.org/2000/svg">
<path d="M680.87 754.48L424.91 498.52C405.29 513.013 382.573 524.55 356.76 533.13C330.947 541.71 303.187 546 273.48 546C197.42 546 132.903 519.513 79.93 466.54C26.9633 413.573 0.47998 349.06 0.47998 273C0.47998 196.94 26.9633 132.427 79.93 79.46C132.903 26.4867 197.42 0 273.48 0C349.54 0 414.053 26.4867 467.02 79.46C519.993 132.427 546.48 196.94 546.48 273C546.48 303.087 542.19 330.847 533.61 356.28C525.03 381.713 513.493 404.053 499 423.3L755.52 680.39L680.87 754.48ZM273.48 440C320.087 440 359.57 423.82 391.93 391.46C424.297 359.093 440.48 319.607 440.48 273C440.48 226.393 424.297 186.907 391.93 154.54C359.57 122.18 320.087 106 273.48 106C226.873 106 187.387 122.18 155.02 154.54C122.66 186.907 106.48 226.393 106.48 273C106.48 319.607 122.66 359.093 155.02 391.46C187.387 423.82 226.873 440 273.48 440Z" fill="#A13547"/>
</svg>
