<?xml version="1.0" encoding="UTF-8"?>
<svg xmlns="http://www.w3.org/2000/svg" version="1.1" xmlns:cc="http://creativecommons.org/ns#" xmlns:dc="http://purl.org/dc/elements/1.1/" xmlns:inkscape="http://www.inkscape.org/namespaces/inkscape" xmlns:rdf="http://www.w3.org/1999/02/22-rdf-syntax-ns#" xmlns:sodipodi="http://sodipodi.sourceforge.net/DTD/sodipodi-0.dtd" xmlns:svg="http://www.w3.org/2000/svg" viewBox="0 0 1200 719">
  <!-- Generator: Adobe Illustrator 28.7.1, SVG Export Plug-In . SVG Version: 1.2.0 Build 142)  -->
  <g>
    <g id="svg2">
      <sodipodi:namedview id="namedview30" bordercolor="#666666" borderopacity="1" gridtolerance="10" guidetolerance="10" inkscape:current-layer="svg2" inkscape:cx="455.50398" inkscape:cy="417.05123" inkscape:pageopacity="0" inkscape:pageshadow="2" inkscape:window-height="876" inkscape:window-maximized="1" inkscape:window-width="1535" inkscape:window-x="65" inkscape:window-y="24" inkscape:zoom="0.37249375" objecttolerance="10" pagecolor="#ffffff" showgrid="false"/>
      <path id="path6686" d="M779.8,359.4c0,95.3-80.7,172.6-180.2,172.6s-180.2-77.3-180.2-172.6,80.7-172.6,180.2-172.6,180.2,77.3,180.2,172.6ZM600,0c-103,.5-209.8,25.5-310.9,73.6-75.1,37.1-148.2,89.5-211.7,154.1C46.2,260.7,6.4,308.5,0,359.5c.8,44.2,48.1,98.7,77.4,131.8,59.5,62.1,130.8,113,211.7,154.2,94.3,45.8,198.6,72.1,310.9,73.6,103.1-.5,209.9-25.8,310.9-73.6,75.1-37.1,148.2-89.5,211.7-154.2,31.2-33,71-80.8,77.4-131.8-.8-44.2-48.1-98.7-77.4-131.8-59.5-62.1-130.8-113-211.7-154.1C816.6,27.8,712,1.7,600,0ZM599.9,89.2c156.1,0,282.7,121,282.7,270.3s-126.6,270.3-282.7,270.3-282.7-121-282.7-270.3S443.8,89.2,599.9,89.2h0Z" inkscape:connector-curvature="0"/>
    </g>
  </g>
</svg>