<svg width="217" height="253" viewBox="0 0 217 253" fill="none" xmlns="http://www.w3.org/2000/svg">
<path d="M89.8452 225.315C89.8452 225.315 51.8808 219.248 48.5169 192.757C48.5169 192.757 39.8067 171.612 45.8137 157.496C45.8137 157.496 58.7889 157.496 66.7182 164.224C66.7182 164.224 87.4424 152.15 97.8346 157.496C97.8346 157.496 108.707 140.376 115.375 138.694C115.375 138.694 125.707 148.786 126.368 165.245M126.368 165.245C126.368 165.245 135.439 175.998 126.368 210.898C126.368 210.898 112.612 205.192 108.888 192.757C108.888 192.757 119.94 155.514 126.368 165.245ZM126.368 165.245C126.368 165.245 158.265 138.694 183.435 153.471C183.435 153.471 206.622 159.839 211.307 171.612C211.307 171.612 215.332 199.125 207.943 211.92C207.943 211.92 197.191 194.439 194.488 191.796C194.488 191.796 197.852 203.87 193.827 215.283C193.827 215.283 192.145 236.128 153.88 233.725C153.88 233.725 115.916 260.937 70.9231 241.774C25.9304 222.612 23.2273 174.856 29.9551 152.45C29.9551 152.45 90.0855 28.525 175.025 118.21" stroke="#197DE3" stroke-width="7.20844" stroke-linecap="round" stroke-linejoin="round"/>
<path d="M62.5132 12.6664C62.5132 12.6664 40.5275 33.5709 48.7571 57.7792C48.7571 57.7792 54.7041 82.5282 76.0891 82.8886C76.0891 82.8886 94.0501 78.2031 97.7745 61.5636C97.7745 61.5636 100.418 42.3411 87.5025 16.2706C87.5025 16.2706 77.5308 -0.909493 62.5733 12.6664H62.5132Z" stroke="#197DE3" stroke-width="7.20844" stroke-miterlimit="10"/>
<path d="M145.53 7.8007C145.53 7.8007 169.739 26.6628 163.852 51.7721C163.852 51.7721 160.308 77.242 138.923 79.7048C138.923 79.7048 120.361 76.7614 115.015 60.4223C115.015 60.4223 110.449 41.3199 120.841 13.8678C120.841 13.8678 129.131 -4.39357 145.59 7.8007H145.53Z" stroke="#197DE3" stroke-width="7.20844" stroke-miterlimit="10"/>
<path d="M207.763 52.3128C207.763 52.3128 219.417 75.6201 206.562 94.9627C206.562 94.9627 194.488 108.298 179.951 104.754C179.951 104.754 164.332 97.3655 166.915 85.7119C166.915 85.7119 169.378 64.6272 190.763 46.8464C190.763 46.8464 200.735 41.4401 207.763 52.3128Z" stroke="#197DE3" stroke-width="7.20844" stroke-miterlimit="10"/>
<path d="M5.14612 68.0512C5.14612 68.0512 -1.94218 93.1005 14.2768 109.68C14.2768 109.68 28.6336 120.493 42.2696 114.365C42.2696 114.365 56.2059 104.214 51.5204 93.2207C51.5204 93.2207 45.1529 72.977 20.8245 59.5212C20.8245 59.5212 10.0118 56.0972 5.14612 68.0512Z" stroke="#197DE3" stroke-width="7.20844" stroke-miterlimit="10"/>
<path d="M92.4283 204.831C92.4283 204.831 81.4955 198.824 90.9866 199.305C90.9866 199.305 99.8169 193.358 92.4283 204.831Z" fill="white" stroke="#197DE3" stroke-width="7.20844" stroke-linecap="round" stroke-linejoin="round"/>
<path d="M162.41 204.891C162.41 204.891 151.658 199.545 162.23 202.308C162.23 202.308 174.244 198.884 162.41 204.891Z" fill="white" stroke="#197DE3" stroke-width="7.20844" stroke-linecap="round" stroke-linejoin="round"/>
</svg>
