<?xml version="1.0" encoding="UTF-8"?>
<svg xmlns="http://www.w3.org/2000/svg" viewBox="0 0 836.55921 644.32498">
  <defs>
    <style>
      .cls-1 {
        fill: #fff;
      }

      .cls-2 {
        opacity: .2;
      }
    </style>
  </defs>
  <g id="Camada_2" data-name="Camada 2" class="cls-2">
    <path class="cls-1" d="M812.39959,182.87497c-18.21002-50.17999-43.02002-97.31-60.62-128.01996-16.59003-28.93005-50.65002-43.12006-82.83002-34.51001l-145.96997,39.08997h-209.40002L167.60961,20.345c-32.17999-8.61005-66.23999,5.57001-82.83002,34.51001-17.59998,30.70996-42.40997,77.84998-60.62,128.01996C1.2896,245.92496-5.39039,298.18497,4.31963,338.20499c4.95996,20.46002,19.62994,37.39001,39.23999,45.28998,7.94995,3.20001,16.32996,4.77002,24.68994,4.77002,12.43005,0,24.80005-3.48999,35.52002-10.32001,10.40002-6.62,22.45001-14.91998,35.51001-24.5v147.26001c0,74.71997,60.78998,135.51001,135.52002,135.51001h286.95996c74.73004,0,135.52002-60.79004,135.52002-135.51001v-147.26001c13.06,9.58002,25.10999,17.88,35.51001,24.5,10.72998,6.83002,23.08997,10.32001,35.52002,10.32001,8.34998,0,16.73999-1.57001,24.68994-4.77002,19.61005-7.89996,34.28003-24.82996,39.24005-45.28998,9.70996-40.02002,3.02997-92.28003-19.84003-155.33002ZM139.27959,288.655c-23.90002,19.07001-46.17999,35.13995-63.13,45.94-5.73999,3.65997-11.27997,2.07001-13.39001,1.21997-2.53998-1.02002-7.01996-3.64001-8.48999-9.72998-12.23999-50.45001,15.83002-142.29004,75.10004-245.66998,2.34998-4.10004,5.85999-7.22003,9.90997-9.10004,2.90997-1.34998,6.09003-2.07001,9.34003-2.07001,1.88995,0,3.81.23999,5.69995.75l128.61005,34.44,19.97998,5.35004c-5.62,10.37-15.52002,26.40997-32.96002,50.25-21.57996,29.5-53.04999,61.5-85.66998,90.64996-15.04999,13.44-30.33002,26.28003-45,37.97003ZM652.27959,500.70499c0,49.90997-40.60999,90.51001-90.52002,90.51001h-122.52997v-43.40002c29.03998-4.44,47.97998-18.54999,47.97998-37.32001,0-22.82996-28.06-38.77997-68.21997-38.77997-40.17004,0-68.23004,15.95001-68.23004,38.77997,0,18.44,18.29004,32.39001,46.47003,37.08002v43.64001h-122.42999c-49.91003,0-90.52002-40.60004-90.52002-90.51001v-182.31c46.20001-37.98999,95.56-84.82001,127.15997-128.02002,23.5-32.13,38.83002-57.39996,45.57001-75.08997.86005-2.26001,2.33002-6.15002,3.36005-10.85004h115.81995c1.03003,4.70001,2.5,8.59003,3.36005,10.85004,6.73999,17.69,22.07001,42.95996,45.57001,75.08997,31.59998,43.20001,80.95996,90.03003,127.15997,128.02002v182.31ZM782.2896,326.08499c-1.47003,6.08997-5.95001,8.70996-8.48999,9.72998-2.11005.85004-7.66003,2.44-13.39001-1.21997-16.95001-10.80005-39.22998-26.87-63.13-45.94-14.66998-11.69-29.96002-24.53003-45-37.97003-32.62-29.14996-64.09998-61.14996-85.66998-90.64996-17.44-23.84003-27.34003-39.88-32.96002-50.25l19.97998-5.35004,128.61005-34.44c5.13995-1.37,10.44-.81,15.03998,1.32001,4.06,1.88,7.57001,5,9.90997,9.10004,59.26001,103.37994,87.34003,195.21997,75.10004,245.66998Z"/>
    <path class="cls-1" d="M352.8496,364.12497c0,32.27002-20.03998,56.60999-46.62,56.60999-26.59003,0-46.63-24.33997-46.63-56.60999,0-32.27997,20.03998-56.63,46.63-56.63,26.58002,0,46.62,24.35004,46.62,56.63Z"/>
    <path class="cls-1" d="M577.33959,364.55496c0,32.08002-19.92999,56.27002-46.34003,56.27002s-46.33997-24.19-46.33997-56.27002c0-32.08997,19.92999-56.27997,46.33997-56.27997s46.34003,24.19,46.34003,56.27997Z"/>
  </g>
</svg>