<?xml version="1.0" encoding="UTF-8"?>
<svg xmlns="http://www.w3.org/2000/svg" viewBox="0 0 600 483">
  <defs>
    <style>
      .cls-1 {
        fill: #fff;
      }

      .cls-2 {
        opacity: .2;
      }
    </style>
  </defs>
  <g id="Camada_3" data-name="Camada 3" class="cls-2">
    <path class="cls-1" d="M574.21002,307.22998c-1.31-.73999-21.74005-12.27997-48.29004-21v-15.46997c0-11.54004-2.90997-41.72003-14.01001-65.17999,10.21002-16.58002,14.01001-36.81,14.01001-50.66003v-58.29999c0-24.25-12.20001-45.56-33.45996-58.45001-21.99005-13.33997-49.71002-15.56-68.97003-5.51996-.10999.06-.21997.12-.33002.17999l-58.84998,32.07001c-4.81,2.62-10.44,3.60999-15.85999,2.77997-13.37-2.02997-33.46002-4.45001-53.29004-4.45001-.50995,0-1.02997.02002-1.53998.06l-.96002.07001c-19.56.06-39.31,2.45001-52.5,4.45001-5.41998.83002-11.04999-.15997-15.85999-2.77997l-58.84998-32.07001c-.10999-.06-.22003-.12-.33002-.17999-19.26001-10.04004-46.97998-7.82001-68.97998,5.51996-21.26001,12.90002-33.45001,34.20001-33.45001,58.45001v58.29999c0,13.85004,3.79999,34.08002,14.01001,50.66003-11.10004,23.46997-14.01001,53.63995-14.01001,65.17999v17.64001c-23.22003,8.32996-40.40002,18.01996-41.59003,18.69995-8.87,5.06-11.95996,16.35004-6.90997,25.22003,3.40997,5.98999,9.65997,9.34998,16.09998,9.34998,3.09003,0,6.23004-.77997,9.12-2.41998.21002-.12,10.58002-5.95001,25.45001-12.04999,1.69,9.34998,4.14001,18.09998,6.35004,24.96997,1.37,4.25,3.01996,8.40002,4.94995,12.44-13.48999,8.25-21.87994,15.5-22.58997,16.10999-7.67999,6.71002-8.47003,18.35004-1.78003,26.05005,3.65002,4.20996,8.80005,6.35999,13.97003,6.35999,4.28998,0,8.60999-1.47998,12.10999-4.51001.15002-.13,7.51001-6.41998,19.22003-13.41998l.27997.34998c.37.47003.77002.91998,1.17999,1.35999,49.84003,52.17004,138.29004,64.31,174.01001,67.10004.22003.01996.45001.03998.67999.04999l20.51001.90002c.29999.01996.59998.02997.89001.02997.35999,0,.70996-.01001,1.06-.02997l19.83002-1.04004c.17999-.01001.34998-.01996.51996-.03998,35.72003-2.79004,124.16998-14.92999,174.01001-67.10004.40997-.44.81-.88995,1.17999-1.35999l2.32001-2.90997c1.57001.87,3.07001,1.73999,4.51001,2.59998,11.78998,7.04004,19.21002,13.38,19.35999,13.51001,3.5,3.03998,7.82001,4.53003,12.13,4.53003,5.15002,0,10.28003-2.14001,13.94-6.33002,6.71997-7.70001,5.92999-19.38-1.77002-26.10004-.79999-.69995-11.31-9.76996-27.88995-19.25995,1.33997-3.08002,2.52997-6.22003,3.56-9.42004,2.38995-7.45001,5.06995-17.09998,6.76996-27.32001,1.92999.73004,3.81,1.47003,5.62,2.21002,15.21002,6.20001,25.89001,12.20001,26.10004,12.32001,2.89001,1.65002,6.02997,2.42999,9.13,2.42999,6.42999,0,12.67999-3.35999,16.08997-9.34003,5.06-8.87994,1.97003-20.16998-6.89996-25.23999ZM478.88,339.78003c-.60999,1.88995-1.31,3.75-2.10999,5.56995-5.86005-1.77997-11.98004-3.25995-18.29004-4.29999-10.08997-1.64996-19.59998,5.16998-21.26001,15.25-1.62,9.82001,4.83002,19.12,14.49005,21.12-43.13,35.94-115.69,44.42999-138.56,46.23999l-18.59003.98004-19.17999-.85004c-22.76001-1.82001-94.14001-10.19-137.35999-45.31,1.58997-.34998,3.19-.64996,4.81-.91998,10.07996-1.65997,16.90997-11.17999,15.25-21.26001-1.66003-10.08002-11.17999-16.89996-21.26001-15.25-8.45001,1.39001-16.56,3.57001-24.17999,6.22003-1.13-2.40002-2.10004-4.85004-2.91003-7.36005-2.84998-8.84998-4.83997-17.25-5.82996-24.51996,4.98999-.92004,9.98999-1.54999,14.88995-1.78003,10.21002-.47998,18.09003-9.14996,17.60004-19.35999-.48999-10.20001-9.15002-18.08002-19.35999-17.59998-4.62006.21997-9.26001.69995-13.88,1.38v-7.14001c0-20.75,7.75995-49.06,15.38995-56.08002.20001-.19.40002-.38.59003-.57001l20.87-20.87c7.33002-7.32001,7.94-18.98999,1.41998-27.03998-6.51996-8.04004-18.06-9.87-26.73999-4.23004l-9.83997,6.40002c-1.08002-4.5-1.69-9.14001-1.69-13.45001v-58.29999c0-10.20001,4.69995-18.22998,13.96997-23.85999,11.20001-6.79004,24.07001-6.85999,29.19-4.29004l58.63,31.95001c12.52002,6.83002,27.19,9.40002,41.29999,7.26001,11.98999-1.82001,29.91003-4,47.21002-4,.51001,0,1.02997-.02002,1.53998-.04999l.91998-.07001c17.07001.06,34.65002,2.19,46.46002,3.98999,14.10999,2.14001,28.78003-.42999,41.29999-7.26001l58.63-31.95996c5.12-2.56,17.98004-2.49005,29.19,4.29999,9.27002,5.63,13.97003,13.65997,13.97003,23.85999v58.29999c0,4.31-.61005,8.95001-1.69,13.45001l-9.84003-6.40002c-8.69-5.63995-20.21997-3.81-26.73999,4.23004-6.52002,8.04999-5.90997,19.71997,1.40997,27.03998l20.87,20.87.60004.57001c7.63,7.02002,15.39001,35.33002,15.39001,56.08002v6.44c-2.40002-.25-4.80005-.44-7.19-.54999-10.22003-.46002-18.87,7.39996-19.36005,17.59998-.48999,10.21002,7.39001,18.88,17.60004,19.35999,2.75.13,5.52997.38,8.32001.75-.95001,7.47003-2.98004,16.20001-5.95001,25.42004Z"/>
    <path class="cls-1" d="M248.40997,274.20001c0,22.75-14.12994,39.90997-32.87,39.90997s-32.87-17.15997-32.87-39.90997c0-22.76001,14.13-39.91998,32.87-39.91998s32.87,17.15997,32.87,39.91998Z"/>
    <path class="cls-1" d="M406.66998,274.5c0,22.62-14.04999,39.66998-32.66998,39.66998s-32.66998-17.04999-32.66998-39.66998,14.04999-39.66998,32.66998-39.66998,32.66998,17.04999,32.66998,39.66998Z"/>
    <path class="cls-1" d="M294.58545,361.69727c-19.64746,0-33.36963-9.52539-33.36963-23.16309s13.72217-23.16309,33.36963-23.16309,33.36963,9.52539,33.36963,23.16309-13.72168,23.16309-33.36963,23.16309Z"/>
  </g>
</svg>