<?xml version="1.0" encoding="UTF-8"?>
<svg id="svg1" xmlns="http://www.w3.org/2000/svg" xmlns:xlink="http://www.w3.org/1999/xlink" viewBox="0 0 4000 1000">
  <defs>
    <style>
      .cls-1 {
        fill: #fff;
      }

      .cls-2 {
        fill: none;
      }

      .cls-3 {
        fill: url(#Nova_amostra_de_padrão_10);
        opacity: .2;
      }

      .cls-4 {
        fill: #5c8ccb;
      }
    </style>
    <pattern id="Nova_amostra_de_padrão_10" data-name="Nova amostra de padrão 10" x="0" y="0" width="375" height="340.04" patternTransform="translate(-644 2191.08)" patternUnits="userSpaceOnUse" viewBox="0 0 375 340.04">
      <g>
        <rect class="cls-2" y="0" width="375" height="340.04"/>
        <g>
          <path class="cls-1" d="M366.23,265.36c-.61,3.05,2.33,4.89,4.69,2.77l5.32-13.36c.79.44,5.43,1.81,5.56,2.33-.43,2.86-4.99,8.46-1.07,10.26,4.22,1.94,5.07-5.99,6.48-8.38.98.57,5.52,1.67,5.66,2.58.05.29-.61,2.71-.68,3.45-.92,10.26,4.89,21.38,14.64,25.37,2.43,1,4.34,1.05,5.2-1.92l-2.29-23.77,17.45-15.98c2.48-4.01-2.17-5.16-5.2-5.74-9.63-1.83-19.37,2.04-25.2,9.91-.42.56-1.45,2.66-1.68,2.85-.72.58-4.83-1.64-5.94-1.87.55-2.71,4.93-8.64,1.18-10.42-4.29-2.04-4.91,5.81-6.45,8.2-.45.31-4.81-1.78-5.7-1.99l4.83-12.68c.64-3.65-3.33-5.01-5.35-1.62-1,1.69-4.22,11.71-4.76,12.08-1.79-.26-3.59-1.24-5.32-1.88,1.81-6,4.52-11.85,6.6-17.82,1.25-3.49-3.17-5.76-5.02-2.58l-6.76,17.59c-.12.31-.31.49-.65.55s-5.15-1.84-5.23-2.14l6.78-17.81c1.69-5.28-7.94-4.31-11.03-4.03-8.35.77-17.85,4.2-25.24,8.12-1.17.62-4.52,2.64-4.9,3.76-.35,1.03.85,4.94,1.29,6.14,3.33,8.96,8.76,18.87,15.92,25.28,1.75,1.56,5.09,4.89,7.43,2.99,3.19-6.05,4.84-12.97,7.85-19.08.26-.06,4.76,1.68,4.96,1.85.26.23.42.4.34.77l-6.69,17.41c-1.24,3.25,2.98,5.32,4.91,2.53l7.24-18.21c.48-.26,4.75,1.45,5.43,2.01.16.64-4.2,10.43-4.61,12.46ZM343.36,258.74c-3.03-3.05-5.96-6.32-8.2-10.03-1.83-3.03-3.21-6.33-4.57-9.52-.48-1.12-2.59-5.02-2.17-5.82.4-.76,3.63-1.84,4.65-2.34,4.54-2.24,9.16-4.21,14.17-5.3,3.11-.68,6.32-.66,9.45-1.15l-13.33,34.15ZM406,283.23c-1.33-.59-2.87-2.15-3.83-3.31-11.07-13.45-.15-33.41,17.07-31.75l-14.67,13.57-.59,1.17,2.02,20.32Z"/>
          <path class="cls-1" d="M342.27,231.42c-3.41,1.45-1.19,6.54,2.09,5.26,3.74-1.46,1.26-6.69-2.09-5.26Z"/>
        </g>
        <g>
          <path class="cls-1" d="M178.73,350.37c-.61,3.05,2.33,4.89,4.69,2.77l5.32-13.36c.79.44,5.43,1.81,5.56,2.33-.43,2.86-4.99,8.46-1.07,10.26,4.22,1.94,5.07-5.99,6.48-8.38.98.57,5.52,1.67,5.66,2.58.05.29-.61,2.71-.68,3.45-.92,10.26,4.89,21.38,14.64,25.37,2.43,1,4.34,1.05,5.2-1.92l-2.29-23.77,17.45-15.98c2.48-4.01-2.17-5.16-5.2-5.74-9.63-1.83-19.37,2.04-25.2,9.91-.42.56-1.45,2.66-1.68,2.85-.72.58-4.83-1.64-5.94-1.87.55-2.71,4.93-8.64,1.18-10.42-4.29-2.04-4.91,5.81-6.45,8.2-.45.31-4.81-1.78-5.7-1.99l4.83-12.68c.64-3.65-3.33-5.01-5.35-1.62-1,1.69-4.22,11.71-4.76,12.08-1.79-.26-3.59-1.24-5.32-1.88,1.81-6,4.52-11.85,6.6-17.82,1.25-3.49-3.17-5.76-5.02-2.58l-6.76,17.59c-.12.31-.31.49-.65.55s-5.15-1.84-5.23-2.14l6.78-17.81c1.69-5.28-7.94-4.31-11.03-4.03-8.35.77-17.85,4.2-25.24,8.12-1.17.62-4.52,2.64-4.9,3.76-.35,1.03.85,4.94,1.29,6.14,3.33,8.96,8.76,18.87,15.92,25.28,1.75,1.56,5.09,4.89,7.43,2.99,3.19-6.05,4.84-12.97,7.85-19.08.26-.06,4.76,1.68,4.96,1.85.26.23.42.4.34.77l-6.69,17.41c-1.24,3.25,2.98,5.32,4.91,2.53l7.24-18.21c.48-.26,4.75,1.45,5.43,2.01.16.64-4.2,10.43-4.61,12.46ZM155.86,343.75c-3.03-3.05-5.96-6.32-8.2-10.03-1.83-3.03-3.21-6.33-4.57-9.52-.48-1.12-2.59-5.02-2.17-5.82.4-.76,3.63-1.84,4.65-2.34,4.54-2.24,9.16-4.21,14.17-5.3,3.11-.68,6.32-.66,9.45-1.15l-13.33,34.15ZM218.5,368.24c-1.33-.59-2.87-2.15-3.83-3.31-11.07-13.45-.15-33.41,17.07-31.75l-14.67,13.57-.59,1.17,2.02,20.32Z"/>
          <path class="cls-1" d="M154.77,316.43c-3.41,1.45-1.19,6.54,2.09,5.26,3.74-1.46,1.26-6.69-2.09-5.26Z"/>
        </g>
        <path class="cls-1" d="M-8.77,265.36c-.61,3.05,2.33,4.89,4.69,2.77l5.32-13.36c.79.44,5.43,1.81,5.56,2.33-.43,2.86-4.99,8.46-1.07,10.26,4.22,1.94,5.07-5.99,6.48-8.38.98.57,5.52,1.67,5.66,2.58.05.29-.61,2.71-.68,3.45-.92,10.26,4.89,21.38,14.64,25.37,2.43,1,4.34,1.05,5.2-1.92l-2.29-23.77,17.45-15.98c2.48-4.01-2.17-5.16-5.2-5.74-9.63-1.83-19.37,2.04-25.2,9.91-.42.56-1.45,2.66-1.68,2.85-.72.58-4.83-1.64-5.94-1.87.55-2.71,4.93-8.64,1.18-10.42-4.29-2.04-4.91,5.81-6.45,8.2-.45.31-4.81-1.78-5.7-1.99l4.83-12.68c.64-3.65-3.33-5.01-5.35-1.62-1,1.69-4.22,11.71-4.76,12.08-1.79-.26-3.59-1.24-5.32-1.88,1.81-6,4.52-11.85,6.6-17.82,1.25-3.49-3.17-5.76-5.02-2.58l-6.76,17.59c-.12.31-.31.49-.65.55s-5.15-1.84-5.23-2.14l6.78-17.81c1.69-5.28-7.94-4.31-11.03-4.03-8.35.77-17.85,4.2-25.24,8.12-1.17.62-4.52,2.64-4.9,3.76-.35,1.03.85,4.94,1.29,6.14,3.33,8.96,8.76,18.87,15.92,25.28,1.75,1.56,5.09,4.89,7.43,2.99,3.19-6.05,4.84-12.97,7.85-19.08.26-.06,4.76,1.68,4.96,1.85.26.23.42.4.34.77l-6.69,17.41c-1.24,3.25,2.98,5.32,4.91,2.53l7.24-18.21c.48-.26,4.75,1.45,5.43,2.01.16.64-4.2,10.43-4.61,12.46ZM-31.64,258.74c-3.03-3.05-5.96-6.32-8.2-10.03-1.83-3.03-3.21-6.33-4.57-9.52-.48-1.12-2.59-5.02-2.17-5.82.4-.76,3.63-1.84,4.65-2.34,4.54-2.24,9.16-4.21,14.17-5.3,3.11-.68,6.32-.66,9.45-1.15l-13.33,34.15ZM31,283.23c-1.33-.59-2.87-2.15-3.83-3.31-11.07-13.45-.15-33.41,17.07-31.75l-14.67,13.57-.59,1.17,2.02,20.32Z"/>
        <g>
          <path class="cls-1" d="M366.23,95.34c-.61,3.05,2.33,4.89,4.69,2.77l5.32-13.36c.79.44,5.43,1.81,5.56,2.33-.43,2.86-4.99,8.46-1.07,10.26,4.22,1.94,5.07-5.99,6.48-8.38.98.57,5.52,1.67,5.66,2.58.05.29-.61,2.71-.68,3.45-.92,10.26,4.89,21.38,14.64,25.37,2.43,1,4.34,1.05,5.2-1.92l-2.29-23.77,17.45-15.98c2.48-4.01-2.17-5.16-5.2-5.74-9.63-1.83-19.37,2.04-25.2,9.91-.42.56-1.45,2.66-1.68,2.85-.72.58-4.83-1.64-5.94-1.87.55-2.71,4.93-8.64,1.18-10.42-4.29-2.04-4.91,5.81-6.45,8.2-.45.31-4.81-1.78-5.7-1.99l4.83-12.68c.64-3.65-3.33-5.01-5.35-1.62-1,1.69-4.22,11.71-4.76,12.08-1.79-.26-3.59-1.24-5.32-1.88,1.81-6,4.52-11.85,6.6-17.82,1.25-3.49-3.17-5.76-5.02-2.58l-6.76,17.59c-.12.31-.31.49-.65.55s-5.15-1.84-5.23-2.14l6.78-17.81c1.69-5.28-7.94-4.31-11.03-4.03-8.35.77-17.85,4.2-25.24,8.12-1.17.62-4.52,2.64-4.9,3.76-.35,1.03.85,4.94,1.29,6.14,3.33,8.96,8.76,18.87,15.92,25.28,1.75,1.56,5.09,4.89,7.43,2.99,3.19-6.05,4.84-12.97,7.85-19.08.26-.06,4.76,1.68,4.96,1.85.26.23.42.4.34.77l-6.69,17.41c-1.24,3.25,2.98,5.32,4.91,2.53l7.24-18.21c.48-.26,4.75,1.45,5.43,2.01.16.64-4.2,10.43-4.61,12.46ZM343.36,88.73c-3.03-3.05-5.96-6.32-8.2-10.03-1.83-3.03-3.21-6.33-4.57-9.52-.48-1.12-2.59-5.02-2.17-5.82.4-.76,3.63-1.84,4.65-2.34,4.54-2.24,9.16-4.21,14.17-5.3,3.11-.68,6.32-.66,9.45-1.15l-13.33,34.15ZM406,113.21c-1.33-.59-2.87-2.15-3.83-3.31-11.07-13.45-.15-33.41,17.07-31.75l-14.67,13.57-.59,1.17,2.02,20.32Z"/>
          <path class="cls-1" d="M342.27,61.4c-3.41,1.45-1.19,6.54,2.09,5.26,3.74-1.46,1.26-6.69-2.09-5.26Z"/>
        </g>
        <g>
          <path class="cls-1" d="M178.73,180.35c-.61,3.05,2.33,4.89,4.69,2.77l5.32-13.36c.79.44,5.43,1.81,5.56,2.33-.43,2.86-4.99,8.46-1.07,10.26,4.22,1.94,5.07-5.99,6.48-8.38.98.57,5.52,1.67,5.66,2.58.05.29-.61,2.71-.68,3.45-.92,10.26,4.89,21.38,14.64,25.37,2.43,1,4.34,1.05,5.2-1.92l-2.29-23.77,17.45-15.98c2.48-4.01-2.17-5.16-5.2-5.74-9.63-1.83-19.37,2.04-25.2,9.91-.42.56-1.45,2.66-1.68,2.85-.72.58-4.83-1.64-5.94-1.87.55-2.71,4.93-8.64,1.18-10.42-4.29-2.04-4.91,5.81-6.45,8.2-.45.31-4.81-1.78-5.7-1.99l4.83-12.68c.64-3.65-3.33-5.01-5.35-1.62-1,1.69-4.22,11.71-4.76,12.08-1.79-.26-3.59-1.24-5.32-1.88,1.81-6,4.52-11.85,6.6-17.82,1.25-3.49-3.17-5.76-5.02-2.58l-6.76,17.59c-.12.31-.31.49-.65.55s-5.15-1.84-5.23-2.14l6.78-17.81c1.69-5.28-7.94-4.31-11.03-4.03-8.35.77-17.85,4.2-25.24,8.12-1.17.62-4.52,2.64-4.9,3.76-.35,1.03.85,4.94,1.29,6.14,3.33,8.96,8.76,18.87,15.92,25.28,1.75,1.56,5.09,4.89,7.43,2.99,3.19-6.05,4.84-12.97,7.85-19.08.26-.06,4.76,1.68,4.96,1.85.26.23.42.4.34.77l-6.69,17.41c-1.24,3.25,2.98,5.32,4.91,2.53l7.24-18.21c.48-.26,4.75,1.45,5.43,2.01.16.64-4.2,10.43-4.61,12.46ZM155.86,173.73c-3.03-3.05-5.96-6.32-8.2-10.03-1.83-3.03-3.21-6.33-4.57-9.52-.48-1.12-2.59-5.02-2.17-5.82.4-.76,3.63-1.84,4.65-2.34,4.54-2.24,9.16-4.21,14.17-5.3,3.11-.68,6.32-.66,9.45-1.15l-13.33,34.15ZM218.5,198.22c-1.33-.59-2.87-2.15-3.83-3.31-11.07-13.45-.15-33.41,17.07-31.75l-14.67,13.57-.59,1.17,2.02,20.32Z"/>
          <path class="cls-1" d="M154.77,146.41c-3.41,1.45-1.19,6.54,2.09,5.26,3.74-1.46,1.26-6.69-2.09-5.26Z"/>
        </g>
        <path class="cls-1" d="M-8.77,95.34c-.61,3.05,2.33,4.89,4.69,2.77l5.32-13.36c.79.44,5.43,1.81,5.56,2.33-.43,2.86-4.99,8.46-1.07,10.26,4.22,1.94,5.07-5.99,6.48-8.38.98.57,5.52,1.67,5.66,2.58.05.29-.61,2.71-.68,3.45-.92,10.26,4.89,21.38,14.64,25.37,2.43,1,4.34,1.05,5.2-1.92l-2.29-23.77,17.45-15.98c2.48-4.01-2.17-5.16-5.2-5.74-9.63-1.83-19.37,2.04-25.2,9.91-.42.56-1.45,2.66-1.68,2.85-.72.58-4.83-1.64-5.94-1.87.55-2.71,4.93-8.64,1.18-10.42-4.29-2.04-4.91,5.81-6.45,8.2-.45.31-4.81-1.78-5.7-1.99l4.83-12.68c.64-3.65-3.33-5.01-5.35-1.62-1,1.69-4.22,11.71-4.76,12.08-1.79-.26-3.59-1.24-5.32-1.88,1.81-6,4.52-11.85,6.6-17.82,1.25-3.49-3.17-5.76-5.02-2.58l-6.76,17.59c-.12.31-.31.49-.65.55s-5.15-1.84-5.23-2.14l6.78-17.81c1.69-5.28-7.94-4.31-11.03-4.03-8.35.77-17.85,4.2-25.24,8.12-1.17.62-4.52,2.64-4.9,3.76-.35,1.03.85,4.94,1.29,6.14,3.33,8.96,8.76,18.87,15.92,25.28,1.75,1.56,5.09,4.89,7.43,2.99,3.19-6.05,4.84-12.97,7.85-19.08.26-.06,4.76,1.68,4.96,1.85.26.23.42.4.34.77l-6.69,17.41c-1.24,3.25,2.98,5.32,4.91,2.53l7.24-18.21c.48-.26,4.75,1.45,5.43,2.01.16.64-4.2,10.43-4.61,12.46ZM-31.64,88.73c-3.03-3.05-5.96-6.32-8.2-10.03-1.83-3.03-3.21-6.33-4.57-9.52-.48-1.12-2.59-5.02-2.17-5.82.4-.76,3.63-1.84,4.65-2.34,4.54-2.24,9.16-4.21,14.17-5.3,3.11-.68,6.32-.66,9.45-1.15l-13.33,34.15ZM31,113.21c-1.33-.59-2.87-2.15-3.83-3.31-11.07-13.45-.15-33.41,17.07-31.75l-14.67,13.57-.59,1.17,2.02,20.32Z"/>
        <path class="cls-1" d="M178.73,10.33c-.61,3.05,2.33,4.89,4.69,2.77l5.32-13.36c.79.44,5.43,1.81,5.56,2.33-.43,2.86-4.99,8.46-1.07,10.26,4.22,1.94,5.07-5.99,6.48-8.38.98.57,5.52,1.67,5.66,2.58.05.29-.61,2.71-.68,3.45-.92,10.26,4.89,21.38,14.64,25.37,2.43,1,4.34,1.05,5.2-1.92l-2.29-23.77,17.45-15.98c2.48-4.01-2.17-5.16-5.2-5.74-9.63-1.83-19.37,2.04-25.2,9.91-.42.56-1.45,2.66-1.68,2.85-.72.58-4.83-1.64-5.94-1.87.55-2.71,4.93-8.64,1.18-10.42-4.29-2.04-4.91,5.81-6.45,8.2-.45.31-4.81-1.78-5.7-1.99l4.83-12.68c.64-3.65-3.33-5.01-5.35-1.62-1,1.69-4.22,11.71-4.76,12.08-1.79-.26-3.59-1.24-5.32-1.88,1.81-6,4.52-11.85,6.6-17.82,1.25-3.49-3.17-5.76-5.02-2.58l-6.76,17.59c-.12.31-.31.49-.65.55s-5.15-1.84-5.23-2.14l6.78-17.81c1.69-5.28-7.94-4.31-11.03-4.03-8.35.77-17.85,4.2-25.24,8.12-1.17.62-4.52,2.64-4.9,3.76-.35,1.03.85,4.94,1.29,6.14,3.33,8.96,8.76,18.87,15.92,25.28,1.75,1.56,5.09,4.89,7.43,2.99,3.19-6.05,4.84-12.97,7.85-19.08.26-.06,4.76,1.68,4.96,1.85.26.23.42.4.34.77l-6.69,17.41c-1.24,3.25,2.98,5.32,4.91,2.53l7.24-18.21c.48-.26,4.75,1.45,5.43,2.01.16.64-4.2,10.43-4.61,12.46ZM155.86,3.72c-3.03-3.05-5.96-6.32-8.2-10.03-1.83-3.03-3.21-6.33-4.57-9.52-.48-1.12-2.59-5.02-2.17-5.82.4-.76,3.63-1.84,4.65-2.34,4.54-2.24,9.16-4.21,14.17-5.3,3.11-.68,6.32-.66,9.45-1.15l-13.33,34.15ZM218.5,28.2c-1.33-.59-2.87-2.15-3.83-3.31-11.07-13.45-.15-33.41,17.07-31.75l-14.67,13.57-.59,1.17,2.02,20.32Z"/>
      </g>
    </pattern>
  </defs>
  <g id="layer1-2" data-name="layer1">
    <g>
      <rect class="cls-4" width="4000" height="1000"/>
      <rect class="cls-3" width="4000" height="1000"/>
    </g>
  </g>
</svg>